<?xml version="1.0" encoding="UTF-8"?>
<svg version="1.1" xmlns="http://www.w3.org/2000/svg" width="1024" height="1024">
<path d="M0 0 C0.99 0.33 1.98 0.66 3 1 C4.79403055 1.11591448 6.59186356 1.17652871 8.3894043 1.20532227 C9.49031906 1.22526749 10.59123383 1.24521271 11.72550964 1.26576233 C13.50687065 1.29083107 13.50687065 1.29083107 15.32421875 1.31640625 C16.54075638 1.33718735 17.75729401 1.35796844 19.01069641 1.37937927 C22.90290596 1.44484717 26.79518385 1.50374715 30.6875 1.5625 C33.32357482 1.60568782 35.95964269 1.6493022 38.59570312 1.69335938 C45.06372951 1.80052578 51.53182411 1.90229745 58 2 C57.20744362 3.13113704 56.4119585 4.2602224 55.61523438 5.38842773 C54.9512262 6.33189308 54.9512262 6.33189308 54.27380371 7.29441833 C52.85994878 9.18752401 51.36922844 10.62090166 49.5 12.0625 C47.15466385 13.96808563 45.46889578 15.63732506 43.5 18 C41.07709267 20.9074888 38.58096682 23.16324743 35.6875 25.5703125 C33.31580592 27.57966443 31.16996443 29.77578646 29 32 C27.83468286 33.16801463 26.66792453 34.33459255 25.5 35.5 C24.9534375 36.0465625 24.406875 36.593125 23.84375 37.15625 C22.48686345 38.51313655 21.12981258 39.8698588 19.77266979 41.22648907 C16.77769092 44.22237652 13.78531927 47.22084968 10.79353333 50.21992493 C9.53164306 51.4847477 8.26974593 52.74956363 7.00784302 54.01437378 C6.33843311 54.68533459 5.66902321 55.35629539 4.97932816 56.04758835 C-10.40805565 71.47028347 -25.80110428 86.88731396 -41.19744396 102.30106831 C-50.09812673 111.21208895 -58.99690854 120.12499303 -67.89135742 129.04223633 C-75.65660867 136.82737782 -83.42533067 144.60903586 -91.19829732 152.38647431 C-95.31223683 156.50302674 -99.42438219 160.62133687 -103.53236961 164.74382973 C-107.38990137 168.61487557 -111.25203382 172.48126906 -115.11783791 176.34405327 C-116.53942269 177.76619082 -117.95927886 179.19005861 -119.37731934 180.61573029 C-121.30515472 182.5534356 -123.23896726 184.48496551 -125.17448425 186.41499329 C-125.74110832 186.98744304 -126.30773239 187.55989278 -126.89152688 188.1496895 C-130.77175647 192 -130.77175647 192 -133 192 C-133.38512882 192.8723424 -133.38512882 192.8723424 -133.77803802 193.76230788 C-135.11453142 196.20973325 -136.58182681 197.83251319 -138.5513916 199.80307388 C-139.29262016 200.54951794 -140.03384872 201.295962 -140.79753876 202.06502557 C-141.61522987 202.87825524 -142.43292099 203.69148491 -143.27539062 204.52935791 C-144.14140144 205.39848871 -145.00741226 206.26761951 -145.89966583 207.16308761 C-148.3048163 209.5748421 -150.71438416 211.98202357 -153.12592697 214.38737631 C-155.72531675 216.98224737 -158.31895279 219.58285842 -160.91333008 222.18273926 C-165.9962268 227.27453707 -171.08452536 232.36090356 -176.17477036 237.44535425 C-180.30976671 241.57583793 -184.44281181 245.70826459 -188.57446289 249.84209442 C-189.16199105 250.42992904 -189.74951921 251.01776367 -190.35485125 251.62341146 C-191.5482852 252.81748485 -192.74171465 254.01156273 -193.93513966 255.20564505 C-205.12978155 266.40599209 -216.3305494 277.6001968 -227.53341389 288.79231855 C-237.15466061 298.40462494 -246.77064485 308.02216967 -256.3828125 317.64355469 C-267.53738631 328.80881987 -278.69518236 339.97084847 -289.85817719 351.12769485 C-291.04730137 352.3161819 -292.23642136 353.50467315 -293.42553711 354.69316864 C-294.01065709 355.27798007 -294.59577706 355.86279149 -295.19862795 356.46532448 C-299.33031265 360.59527918 -303.45966551 364.72755666 -307.58813477 368.8607254 C-312.61487717 373.89306386 -317.64514041 378.92185024 -322.68001938 383.94604853 C-325.25084742 386.51160331 -327.82001883 389.07876256 -330.38491821 391.65024567 C-333.1594297 394.43177138 -335.94157911 397.20557284 -338.72460938 399.97857666 C-339.95114605 401.2118055 -339.95114605 401.2118055 -341.20246124 402.46994805 C-341.9436898 403.20596112 -342.68491837 403.94197419 -343.4486084 404.70029068 C-344.09077049 405.34212807 -344.73293259 405.98396546 -345.39455414 406.64525247 C-347 408 -347 408 -349 408 C-349.37125 408.86625 -349.37125 408.86625 -349.75 409.75 C-351.2127149 412.38288682 -352.63826769 414.12450669 -355 416 C-358.82635964 415.6966142 -360.67458846 413.69390447 -363.3019104 411.05212402 C-364.1543483 410.20236496 -365.00678619 409.3526059 -365.88505554 408.47709656 C-367.27540764 407.06820915 -367.27540764 407.06820915 -368.69384766 405.63085938 C-369.68560155 404.63662204 -370.6780247 403.6430519 -371.67106628 402.65010071 C-374.36555278 399.95220177 -377.05075804 397.24523026 -379.73455095 394.5366993 C-382.54266414 391.70611843 -385.35966597 388.88441399 -388.1758728 386.06188965 C-393.5092794 380.71399176 -398.83541671 375.35891859 -404.15863454 370.00088072 C-413.69742999 360.40016007 -423.24844429 350.81160181 -432.80217588 341.22574663 C-436.15647494 337.85959433 -439.50757016 334.49029292 -442.85605264 331.1183548 C-444.93604254 329.02456524 -447.01800089 326.93274095 -449.10041237 324.84136009 C-450.0680062 323.86868531 -451.0347211 322.89513531 -452.00050545 321.92066383 C-453.31540093 320.59412905 -454.63363586 319.27090684 -455.95205688 317.94787598 C-456.68982676 317.20528786 -457.42759663 316.46269974 -458.18772316 315.69760895 C-459.90181549 313.930308 -459.90181549 313.930308 -462 313 C-459.80137941 308.05310367 -456.6320082 304.47109122 -452.53198242 301.00634766 C-447.14177775 296.32785002 -442.1439219 291.26884671 -437.11328125 286.2109375 C-436.08316267 285.17894807 -435.05281882 284.14718347 -434.02226257 283.1156311 C-431.33084798 280.42043107 -428.6424482 277.72224396 -425.95471191 275.02337646 C-423.22358295 272.28199536 -420.4896069 269.54345691 -417.75585938 266.8046875 C-412.94555895 261.98486542 -408.13773353 257.16258888 -403.33174133 252.33847046 C-399.42703006 248.42249065 -395.51460764 244.51432375 -391.59619141 240.61206055 C-387.43961961 236.47149997 -383.28526171 232.32872726 -379.13251686 228.18432903 C-376.63133824 225.68836319 -374.12923254 223.19334155 -371.625 220.70043945 C-368.71852775 217.80702408 -365.81621427 214.90946767 -362.9140625 212.01171875 C-362.02530426 211.1281218 -361.13654602 210.24452484 -360.22085571 209.33415222 C-355.72847463 204.84217306 -351.41791928 200.3040489 -347.37802124 195.39802551 C-346.69590073 194.70600288 -346.69590073 194.70600288 -346 194 C-345.34 194 -344.68 194 -344 194 C-343.7525 193.4225 -343.505 192.845 -343.25 192.25 C-341.81700012 189.67060021 -340.21575324 187.93878408 -338 186 C-337.34 186 -336.68 186 -336 186 C-335.74476563 185.42024414 -335.48953125 184.84048828 -335.2265625 184.24316406 C-333.87415223 181.76984688 -332.36267476 180.10397891 -330.375 178.109375 C-329.66859375 177.40039062 -328.9621875 176.69140625 -328.234375 175.9609375 C-327.49703125 175.23132813 -326.7596875 174.50171875 -326 173.75 C-325.26265625 173.00492188 -324.5253125 172.25984375 -323.765625 171.4921875 C-323.05921875 170.78835938 -322.3528125 170.08453125 -321.625 169.359375 C-320.97789062 168.71452148 -320.33078125 168.06966797 -319.6640625 167.40527344 C-318 166 -318 166 -316 166 C-315.7421875 165.41734375 -315.484375 164.8346875 -315.21875 164.234375 C-313.90165983 161.8197097 -312.44911616 160.18259823 -310.5 158.25 C-309.8915625 157.63640625 -309.283125 157.0228125 -308.65625 156.390625 C-307 155 -307 155 -305 155 C-304.731875 154.401875 -304.46375 153.80375 -304.1875 153.1875 C-303.00082594 151.00152146 -301.90400887 149.58667406 -300 148 C-299.34 148 -298.68 148 -298 148 C-297.773125 147.44828125 -297.54625 146.8965625 -297.3125 146.328125 C-295.61274074 143.31307583 -293.45195184 141.18769631 -291 138.75 C-290.113125 137.85796875 -289.22625 136.9659375 -288.3125 136.046875 C-286 134 -286 134 -284 134 C-283.34 132.68 -282.68 131.36 -282 130 C-281.34 130 -280.68 130 -280 130 C-279.67 129.01 -279.34 128.02 -279 127 C-278.34 127 -277.68 127 -277 127 C-276.62875 126.13375 -276.62875 126.13375 -276.25 125.25 C-274.81700012 122.67060021 -273.21575324 120.93878408 -271 119 C-270.34 119 -269.68 119 -269 119 C-268.74206665 118.43826175 -268.4841333 117.87652349 -268.21838379 117.29776287 C-256.81059872 95.78370039 -236.24962996 76.24596831 -220 58.3125 C-219.39620341 57.64376059 -218.79240682 56.97502118 -218.17031336 56.28601694 C-185.80507564 20.53008827 -156.42464892 -3.52706538 -106.88978958 -5.9965992 C-94.55223398 -6.50182027 -82.26449949 -6.17182997 -69.9375 -5.5625 C-69.0654039 -5.52069973 -68.1933078 -5.47889945 -67.29478455 -5.4358325 C-44.73550971 -4.33204789 -22.35677196 -2.21026799 0 1 C0 0.67 0 0.34 0 0 Z " fill="#4FC4FB" transform="translate(696,187)"/>
<path d="M0 0 C1.62960346 -0.00135848 3.25920662 -0.00314091 4.8888092 -0.00531006 C9.27994728 -0.00983485 13.67106162 -0.0081144 18.06220007 -0.00493097 C22.6918681 -0.00237728 27.32153427 -0.00475362 31.95120239 -0.00631714 C39.73325968 -0.00813193 47.51530745 -0.00575257 55.29736328 -0.00097656 C64.23411448 0.00444555 73.17084279 0.00271557 82.10759342 -0.00280297 C89.82959685 -0.00737685 97.55159348 -0.00796338 105.27359784 -0.0053643 C109.86338049 -0.00382236 114.45315249 -0.00354905 119.04293442 -0.00690079 C137.84530442 -0.01881556 156.59719304 0.03360997 175.37548828 1.12939453 C174.56298828 3.06689453 174.56298828 3.06689453 173.37548828 5.12939453 C171.89048828 5.62439453 171.89048828 5.62439453 170.37548828 6.12939453 C170.10736328 6.70689453 169.83923828 7.28439453 169.56298828 7.87939453 C168.15934899 10.5389216 166.28198674 11.99448799 163.95361328 13.84814453 C160.45634743 16.68750889 157.49852299 19.94105306 154.68798828 23.44189453 C153.54330078 24.77220703 153.54330078 24.77220703 152.37548828 26.12939453 C151.71548828 26.12939453 151.05548828 26.12939453 150.37548828 26.12939453 C150.04548828 27.11939453 149.71548828 28.10939453 149.37548828 29.12939453 C147.43798828 31.31689453 147.43798828 31.31689453 145.37548828 33.12939453 C144.71548828 33.12939453 144.05548828 33.12939453 143.37548828 33.12939453 C143.37548828 33.78939453 143.37548828 34.44939453 143.37548828 35.12939453 C141.73197371 36.49116375 140.06026172 37.81901519 138.37548828 39.12939453 C135.53463741 41.82456074 132.94060419 44.62495199 130.43798828 47.62939453 C128.51712746 49.90796668 126.76027592 51.63988989 124.43798828 53.56689453 C121.93703744 55.65952687 120.0279088 57.60377392 117.93798828 60.06689453 C115.15016864 63.35032655 112.21853853 66.1197274 108.85595703 68.80517578 C107.11122464 70.25457059 107.11122464 70.25457059 105.37548828 73.12939453 C104.71548828 73.12939453 104.05548828 73.12939453 103.37548828 73.12939453 C103.37548828 73.78939453 103.37548828 74.44939453 103.37548828 75.12939453 C101.73197371 76.49116375 100.06026172 77.81901519 98.37548828 79.12939453 C94.07357682 83.19231091 90.24054773 87.65449416 86.36376953 92.11767578 C85.37957031 93.11347656 85.37957031 93.11347656 84.37548828 94.12939453 C83.71548828 94.12939453 83.05548828 94.12939453 82.37548828 94.12939453 C82.06611328 94.96470703 82.06611328 94.96470703 81.75048828 95.81689453 C80.2277895 98.37779704 78.39376188 99.82094261 76.07861328 101.65283203 C73.50346724 103.88541277 71.39186092 106.47386784 69.18017578 109.05908203 C67.36297806 111.14374608 65.49421718 113.15008525 63.56298828 115.12939453 C62.99966797 115.70689453 62.43634766 116.28439453 61.85595703 116.87939453 C60.37548828 118.12939453 60.37548828 118.12939453 58.37548828 118.12939453 C58.00423828 118.99564453 58.00423828 118.99564453 57.62548828 119.87939453 C56.1924884 122.45879432 54.59124152 124.19061045 52.37548828 126.12939453 C51.71548828 126.12939453 51.05548828 126.12939453 50.37548828 126.12939453 C50.12798828 126.74814453 49.88048828 127.36689453 49.62548828 128.00439453 C48.16920189 130.4800814 46.99736322 131.08064456 44.37548828 132.12939453 C44.37548828 132.78939453 44.37548828 133.44939453 44.37548828 134.12939453 C43.71548828 134.12939453 43.05548828 134.12939453 42.37548828 134.12939453 C42.12798828 134.70689453 41.88048828 135.28439453 41.62548828 135.87939453 C40.1924884 138.45879432 38.59124152 140.19061045 36.37548828 142.12939453 C35.71548828 142.12939453 35.05548828 142.12939453 34.37548828 142.12939453 C34.10736328 142.76876953 33.83923828 143.40814453 33.56298828 144.06689453 C32.37548828 146.12939453 32.37548828 146.12939453 29.37548828 147.12939453 C29.04548828 148.11939453 28.71548828 149.10939453 28.37548828 150.12939453 C26.70361328 151.74267578 26.70361328 151.74267578 24.62548828 153.44189453 C22.06918396 155.60176663 19.7701573 157.69588945 17.68798828 160.31689453 C15.37548828 163.12939453 15.37548828 163.12939453 12.75048828 165.19189453 C10.20223273 167.27073459 8.90017319 169.24051786 7.37548828 172.12939453 C11.2328203 176.74881342 15.12750402 180.99727653 19.79736328 184.80517578 C21.43234512 186.17710361 22.95552262 187.53407167 24.37548828 189.12939453 C24.37548828 189.78939453 24.37548828 190.44939453 24.37548828 191.12939453 C25.36548828 191.45939453 26.35548828 191.78939453 27.37548828 192.12939453 C27.37548828 192.78939453 27.37548828 193.44939453 27.37548828 194.12939453 C28.2654248 194.53254883 28.2654248 194.53254883 29.17333984 194.94384766 C31.38088861 196.13230185 32.8409171 197.33681842 34.60986328 199.09814453 C35.18349609 199.66919922 35.75712891 200.24025391 36.34814453 200.82861328 C36.93466797 201.42287109 37.52119141 202.01712891 38.12548828 202.62939453 C38.72748047 203.22365234 39.32947266 203.81791016 39.94970703 204.43017578 C40.51818359 205.00123047 41.08666016 205.57228516 41.67236328 206.16064453 C42.1915332 206.68207031 42.71070313 207.20349609 43.24560547 207.74072266 C44.37548828 209.12939453 44.37548828 209.12939453 44.37548828 211.12939453 C44.95298828 211.35626953 45.53048828 211.58314453 46.12548828 211.81689453 C48.97079706 213.47665799 50.31202162 215.5500612 52.37548828 218.12939453 C53.53661296 219.17672079 54.71844686 220.20128019 55.91352844 221.20968628 C60.84040975 225.4719647 65.42160892 230.04280265 70.0168457 234.65722656 C70.94632523 235.58656006 71.87580475 236.51589355 72.83345032 237.47338867 C75.3602681 239.99992179 77.88400911 242.52950751 80.40717483 245.05968714 C83.05888863 247.71769869 85.71347918 250.37283418 88.36775208 253.02828979 C93.38906681 258.0527024 98.40783029 263.07965527 103.42566043 268.10754764 C109.12202635 273.81509032 114.82122883 279.51979695 120.52067792 285.22426057 C130.26597823 294.97823075 140.00916137 304.73431099 149.74996948 314.49276733 C151.30330392 316.04889706 152.85672208 317.60494322 154.41024971 319.16088009 C155.60557433 320.35819721 156.80062821 321.55578481 157.99519157 322.75386143 C160.179779 324.94323606 162.37982044 327.09587349 164.67236328 329.17236328 C165.23826172 329.68863281 165.80416016 330.20490234 166.38720703 330.73681641 C167.56045052 331.80328156 168.73496115 332.86835412 169.91064453 333.93212891 C174.26747737 337.91337271 174.26747737 337.91337271 175.37548828 340.12939453 C153.91074258 341.17509444 132.48095485 341.2790593 110.99616337 341.26372004 C106.23871369 341.26114245 101.48126569 341.26354823 96.72381592 341.2651062 C88.75646613 341.26691032 80.7891257 341.26456604 72.82177734 341.25976562 C63.65167982 341.25430386 54.48160447 341.2561066 45.31150746 341.26159203 C37.37448668 341.26614681 29.43747252 341.26676284 21.50045085 341.26415336 C16.78705275 341.26260644 12.07366504 341.26235326 7.36026764 341.26568985 C2.93751242 341.26860402 -1.48521442 341.26652858 -5.90796661 341.26079559 C-7.51747084 341.25948782 -9.1269775 341.25982778 -10.73648071 341.26205826 C-15.02393714 341.26744693 -19.30896514 341.24525187 -23.59574175 341.1655755 C-24.96617577 341.14113526 -26.33674817 341.12361761 -27.70735502 341.11250067 C-41.36244682 340.95624246 -41.36244682 340.95624246 -46.13824463 336.33532715 C-46.62194519 335.79815063 -47.10564575 335.26097412 -47.60400391 334.70751953 C-48.44862183 333.86114929 -48.44862183 333.86114929 -49.31030273 332.99768066 C-51.13245145 331.15584757 -52.90016438 329.27013083 -54.67138672 327.37939453 C-55.93987325 326.07965316 -57.21168674 324.78315129 -58.4866333 323.48974609 C-61.81165775 320.10037864 -65.09327005 316.67201434 -68.36621094 313.23242188 C-72.36379999 309.04627647 -76.40893386 304.90615326 -80.44935989 300.76141357 C-83.58845741 297.54018297 -86.71911366 294.31205744 -89.82635498 291.06005859 C-90.39686584 290.46640503 -90.96737671 289.87275146 -91.55517578 289.2611084 C-92.62006298 288.15261591 -93.68097547 287.04028586 -94.73712158 285.92346191 C-97.0287036 283.54672307 -98.43926491 282.19114347 -101.62451172 281.12939453 C-101.904767 280.56539948 -102.18502228 280.00140442 -102.47377014 279.4203186 C-104.08191773 276.21877961 -106.51753838 273.96628437 -109.03637695 271.47460938 C-109.863517 270.64462181 -109.863517 270.64462181 -110.70736694 269.79786682 C-112.52776615 267.97376894 -114.35525573 266.15696161 -116.18310547 264.34033203 C-117.45137886 263.07325105 -118.71928249 261.80579985 -119.98683167 260.53799438 C-122.64267959 257.88370975 -125.30185123 255.2328164 -127.96362305 252.58447266 C-131.37628472 249.18880915 -134.78231812 245.78659155 -138.1861105 242.38204002 C-140.80317383 239.76524853 -143.42283483 237.15107093 -146.04338264 234.53776932 C-147.30029184 233.28404312 -148.55659557 232.02970961 -149.81228447 230.7747612 C-151.56677357 229.02243904 -153.32451572 227.27344873 -155.08325195 225.52539062 C-155.60231613 225.00587326 -156.12138031 224.4863559 -156.65617371 223.95109558 C-158.89356961 221.73354505 -160.99159759 219.88467062 -163.62451172 218.12939453 C-164.57360416 217.0957565 -165.48821095 216.02985362 -166.37451172 214.94189453 C-171.45051393 208.90320224 -177.0523145 203.64182373 -183.12060547 198.60986328 C-183.61689453 198.12130859 -184.11318359 197.63275391 -184.62451172 197.12939453 C-184.62451172 196.46939453 -184.62451172 195.80939453 -184.62451172 195.12939453 C-185.28451172 195.12939453 -185.94451172 195.12939453 -186.62451172 195.12939453 C-186.62451172 194.46939453 -186.62451172 193.80939453 -186.62451172 193.12939453 C-187.45982422 192.78908203 -187.45982422 192.78908203 -188.31201172 192.44189453 C-191.27146262 190.76220618 -193.28577955 188.58806168 -195.62451172 186.12939453 C-196.22263672 185.57251953 -196.82076172 185.01564453 -197.43701172 184.44189453 C-198.62451172 183.12939453 -198.62451172 183.12939453 -198.62451172 181.12939453 C-199.28451172 181.12939453 -199.94451172 181.12939453 -200.62451172 181.12939453 C-200.62451172 180.46939453 -200.62451172 179.80939453 -200.62451172 179.12939453 C-201.61451172 179.12939453 -202.60451172 179.12939453 -203.62451172 179.12939453 C-203.95451172 177.47939453 -204.28451172 175.82939453 -204.62451172 174.12939453 C-204.15622389 173.73234534 -203.68793606 173.33529615 -203.20545769 172.92621517 C-197.61999045 168.12285342 -192.39744998 163.02583272 -187.2109375 157.79760742 C-185.8218712 156.40383451 -184.43280383 155.01006266 -183.04369617 153.61633098 C-181.5670518 152.13383974 -180.09165207 150.65011984 -178.61658096 149.16606331 C-175.53536525 146.06642501 -172.44969165 142.97125003 -169.36325073 139.8768158 C-160.59335499 131.08285901 -151.82952588 122.28287047 -143.06982422 113.47875977 C-138.21934467 108.60376836 -133.36530564 103.73234952 -128.50739086 98.86476701 C-125.43629867 95.78712514 -122.36977055 92.70502799 -119.30652165 89.61958039 C-116.96224481 87.26087209 -114.61149546 84.90864894 -112.26171875 82.55541992 C-111.41185898 81.69679855 -110.56199921 80.83817719 -109.68638611 79.95353699 C-108.91268173 79.18113678 -108.13897736 78.40873657 -107.34182739 77.6129303 C-106.66824755 76.93620805 -105.9946677 76.2594858 -105.30067635 75.56225681 C-103.62451172 74.12939453 -103.62451172 74.12939453 -101.62451172 74.12939453 C-101.62451172 73.46939453 -101.62451172 72.80939453 -101.62451172 72.12939453 C-100.96451172 72.12939453 -100.30451172 72.12939453 -99.62451172 72.12939453 C-99.62451172 71.46939453 -99.62451172 70.80939453 -99.62451172 70.12939453 C-98.96451172 70.12939453 -98.30451172 70.12939453 -97.62451172 70.12939453 C-97.40638824 69.58628128 -97.18826477 69.04316803 -96.96353149 68.4835968 C-95.17420522 65.3376866 -92.75203812 62.98656026 -90.20019531 60.4621582 C-89.64704651 59.90711105 -89.09389771 59.3520639 -88.52398682 58.78019714 C-86.6951565 56.9476648 -84.85922613 55.12243141 -83.02294922 53.29736328 C-81.7442334 52.01984052 -80.46588807 50.74194683 -79.18789673 49.46369934 C-76.50595085 46.78331775 -73.82068007 44.10632785 -71.1328125 41.43188477 C-67.70499253 38.02097705 -64.28371359 34.60360223 -60.8647213 31.18384838 C-58.22257717 28.54197776 -55.57782202 25.90273398 -52.93220901 23.26433754 C-51.67107011 22.00635967 -50.41051735 20.74779388 -49.15058517 19.48860741 C-45.79154346 16.13372599 -42.41124722 12.80363843 -39.00383759 9.49792099 C-37.79222615 8.29579584 -36.62826896 7.04603599 -35.47296143 5.78970337 C-26.97250174 -2.94381066 -11.43793835 -0.01620186 0 0 Z " fill="#4FC4FB" transform="translate(584.62451171875,468.87060546875)"/>
<path d="M0 0 C2.67979123 0.91993262 3.53792585 1.74472243 5.21338367 3.99023247 C7.78597179 7.22757204 10.52999337 9.8285096 13.72510242 12.44335747 C15.36956854 13.8290093 16.90803054 15.19520568 18.33838367 16.80273247 C18.33838367 17.46273247 18.33838367 18.12273247 18.33838367 18.80273247 C19.82338367 19.29773247 19.82338367 19.29773247 21.33838367 19.80273247 C21.33838367 20.46273247 21.33838367 21.12273247 21.33838367 21.80273247 C21.93167469 22.071502 22.52496571 22.34027153 23.13623524 22.61718559 C25.34378401 23.80563979 26.80381249 25.01015636 28.57275867 26.77148247 C29.43320789 27.6280645 29.43320789 27.6280645 30.31103992 28.50195122 C30.89756336 29.09620903 31.4840868 29.69046684 32.08838367 30.30273247 C32.69037586 30.89699028 33.29236805 31.49124809 33.91260242 32.10351372 C34.48107899 32.67456841 35.04955555 33.24562309 35.63525867 33.83398247 C36.41401356 34.61612114 36.41401356 34.61612114 37.20850086 35.41406059 C38.33838367 36.80273247 38.33838367 36.80273247 38.33838367 38.80273247 C38.91588367 39.02960747 39.49338367 39.25648247 40.08838367 39.49023247 C42.93369245 41.14999592 44.27491701 43.22339914 46.33838367 45.80273247 C47.49950836 46.85005873 48.68134225 47.87461813 49.87642384 48.88302422 C54.80330514 53.14530263 59.38450431 57.71614059 63.9797411 62.3305645 C64.90922062 63.25989799 65.83870014 64.18923149 66.79634571 65.14672661 C69.3231635 67.67325973 71.84690451 70.20284545 74.37007022 72.73302507 C77.02178402 75.39103662 79.67637458 78.04617211 82.33064747 80.70162773 C87.3519622 85.72604033 92.37072568 90.7529932 97.38855582 95.78088558 C103.08492174 101.48842826 108.78412422 107.19313488 114.48357332 112.89759851 C124.22887362 122.65156868 133.97205677 132.40764892 143.71286488 142.16610527 C145.26619931 143.722235 146.81961748 145.27828116 148.3731451 146.83421803 C149.56846972 148.03153514 150.7635236 149.22912274 151.95808697 150.42719936 C154.1426744 152.616574 156.34271584 154.76921143 158.63525867 156.84570122 C159.20115711 157.36197075 159.76705555 157.87824028 160.35010242 158.41015434 C161.52334591 159.47661949 162.69785655 160.54169206 163.87353992 161.60546684 C168.23037276 165.58671064 168.23037276 165.58671064 169.33838367 167.80273247 C147.87363797 168.84843237 126.44385024 168.95239723 104.95905876 168.93705797 C100.20160909 168.93448038 95.44416109 168.93688616 90.68671131 168.93844414 C82.71936152 168.94024826 74.7520211 168.93790398 66.78467274 168.93310356 C57.61457521 168.9276418 48.44449986 168.92944454 39.27440286 168.93492997 C31.33738207 168.93948475 23.40036791 168.94010078 15.46334624 168.9374913 C10.74994814 168.93594438 6.03656044 168.9356912 1.32316303 168.93902779 C-3.09959219 168.94194195 -7.52231903 168.93986651 -11.94507122 168.93413353 C-13.55457544 168.93282575 -15.16408211 168.93316572 -16.77358532 168.93539619 C-21.06104174 168.94078486 -25.34606975 168.91858981 -29.63284636 168.83891344 C-31.00328038 168.8144732 -32.37385277 168.79695554 -33.74445963 168.7858386 C-47.39955143 168.6295804 -47.39955143 168.6295804 -52.17534924 164.00866508 C-52.6590498 163.47148857 -53.14275036 162.93431206 -53.64110851 162.38085747 C-54.48572643 161.53448723 -54.48572643 161.53448723 -55.34740734 160.6710186 C-57.16955605 158.82918551 -58.93726899 156.94346876 -60.70849133 155.05273247 C-61.97697786 153.7529911 -63.24879135 152.45648922 -64.52373791 151.16308403 C-67.84876236 147.77371658 -71.13037466 144.34535228 -74.40331554 140.90575981 C-78.40090459 136.71961441 -82.44603847 132.5794912 -86.4864645 128.43475151 C-89.62556202 125.2135209 -92.75621826 121.98539538 -95.86345959 118.73339653 C-96.43397045 118.13974297 -97.00448132 117.5460894 -97.59228039 116.93444633 C-98.65716759 115.82595384 -99.71808008 114.7136238 -100.77422619 113.59679985 C-103.06580821 111.220061 -104.47636952 109.8644814 -107.66161633 108.80273247 C-107.93592644 106.56539536 -107.93592644 106.56539536 -107.66161633 103.80273247 C-105.81782532 101.68876648 -105.81782532 101.68876648 -103.27265453 99.60012627 C-97.86126334 94.99319169 -92.86967057 90.10595589 -87.885005 85.04443169 C-86.47296231 83.6178211 -85.0609148 82.19121528 -83.64868414 80.76479077 C-82.15275303 79.25305535 -80.65804389 77.74011985 -79.1635294 76.22698402 C-76.03695296 73.06264326 -72.90356677 69.90510407 -69.76862621 66.74905205 C-69.23706407 66.21385252 -68.70550193 65.67865299 -68.15783185 65.12723529 C-67.07237198 64.03437257 -65.9868969 62.94152496 -64.90140688 61.84869218 C-57.61776572 54.51522329 -50.33877017 47.17728518 -43.07787609 39.82128716 C-38.15756448 34.83663259 -33.22676629 29.86262268 -28.28348619 24.9007417 C-25.67362304 22.28019788 -23.06951969 19.65444645 -20.47822666 17.01552773 C-17.59860078 14.08314539 -14.69621475 11.17437525 -11.791255 8.26708794 C-10.509305 6.95042389 -10.509305 6.95042389 -9.20145702 5.60716057 C-8.01380749 4.42971527 -8.01380749 4.42971527 -6.80216503 3.2284832 C-6.11919951 2.53868811 -5.436234 1.84889301 -4.73257256 1.13819504 C-2.66161633 -0.19726753 -2.66161633 -0.19726753 0 0 Z " fill="#0974C0" transform="translate(590.6616163253784,641.1972675323486)"/>
<path d="M0 0 C0.4021875 0.9590625 0.4021875 0.9590625 0.8125 1.9375 C1.88667752 4.33131686 1.88667752 4.33131686 5 5 C6.54296875 6.56640625 6.54296875 6.56640625 8.1875 8.5625 C12.91301944 14.12193464 17.93349444 19.24007139 23.48266602 23.97827148 C28.23507447 28.13053306 32.6790922 32.56449301 37.12033081 37.04516602 C38.59931909 38.53714243 40.08160502 40.02577553 41.56469727 41.51367188 C45.24447387 45.20668154 48.91872627 48.90517112 52.59313965 52.60351562 C55.71045629 55.74070304 58.82991088 58.87573602 61.95211792 62.00805664 C63.39865069 63.46097908 64.84209167 64.91692281 66.28540039 66.37304688 C70.83452393 70.93896894 75.42339629 75.37971197 80.32836914 79.56323242 C82.69964596 81.60134606 84.88915067 83.69125855 87 86 C87 86.66 87 87.32 87 88 C87.54140625 88.2165625 88.0828125 88.433125 88.640625 88.65625 C91.81645344 90.46499997 94.20728081 92.91723799 96.75 95.5 C97.25660156 95.99886719 97.76320313 96.49773437 98.28515625 97.01171875 C102 100.74658861 102 100.74658861 102 103 C100.58951187 104.39048386 100.58951187 104.39048386 98.60357666 106.02752686 C93.59286067 110.292625 88.97968679 114.89488615 84.34277344 119.55957031 C82.91366127 120.99092383 81.48454897 122.42227721 80.05543184 123.85362577 C78.53520045 125.37720663 77.0162244 126.90202872 75.497612 128.42722321 C72.32299332 131.61546193 69.14447622 134.79979532 65.96539307 137.98358154 C59.22394606 144.73608119 52.4867615 151.49282625 45.75 158.25 C38.46150859 165.56054247 31.17227047 172.87033145 23.87815499 180.17526317 C20.71917688 183.33921566 17.56265083 186.50558802 14.40799665 189.67385149 C12.9195596 191.16795421 11.42998072 192.66090709 9.93988037 194.15335083 C8.12503779 195.9710613 6.31199541 197.79057162 4.50109863 199.61221313 C3.69940247 200.4139798 2.8977063 201.21574646 2.07171631 202.04180908 C1.37785702 202.73788898 0.68399773 203.43396889 -0.0308876 204.15114212 C-1.92885392 205.93319884 -3.8864671 207.48329302 -6 209 C-6.71996658 208.27781281 -7.43993317 207.55562561 -8.18171692 206.81155396 C-14.96230957 200.01070219 -21.7455316 193.21248287 -28.53134632 186.41684151 C-32.02003048 182.92293559 -35.50777698 179.42810419 -38.9934082 175.93115234 C-42.35635606 172.5573506 -45.72173058 169.18598725 -49.08881187 165.81631088 C-50.37390823 164.5293648 -51.65812315 163.24153793 -52.9414463 161.95282364 C-54.73705043 160.14997595 -56.53574405 158.35026642 -58.33520508 156.55126953 C-59.13254059 155.74854111 -59.13254059 155.74854111 -59.94598389 154.92959595 C-62.20984434 152.67205893 -64.32833439 150.78111041 -67 149 C-67.94909244 147.96636197 -68.86369923 146.90045909 -69.75 145.8125 C-74.82600221 139.77380771 -80.42780278 134.5124292 -86.49609375 129.48046875 C-86.99238281 128.99191406 -87.48867188 128.50335937 -88 128 C-88 127.34 -88 126.68 -88 126 C-88.66 126 -89.32 126 -90 126 C-90 125.34 -90 124.68 -90 124 C-90.556875 123.773125 -91.11375 123.54625 -91.6875 123.3125 C-94.6469509 121.63281165 -96.66126784 119.45866715 -99 117 C-99.598125 116.443125 -100.19625 115.88625 -100.8125 115.3125 C-102 114 -102 114 -102 112 C-102.66 112 -103.32 112 -104 112 C-104 111.34 -104 110.68 -104 110 C-104.99 110 -105.98 110 -107 110 C-107.495 107.525 -107.495 107.525 -108 105 C-107.53171217 104.60295081 -107.06342434 104.20590162 -106.58094597 103.79682064 C-100.99547873 98.99345889 -95.77293826 93.89643819 -90.58642578 88.66821289 C-89.19735948 87.27443998 -87.80829211 85.88066813 -86.41918445 84.48693645 C-84.94254008 83.00444521 -83.46714035 81.52072531 -81.99206924 80.03666878 C-78.91085353 76.93703047 -75.82517993 73.8418555 -72.73873901 70.74742126 C-63.96884327 61.95346448 -55.20501416 53.15347594 -46.4453125 44.34936523 C-41.59483295 39.47437383 -36.74079393 34.60295499 -31.88287914 29.73537248 C-28.81178695 26.65773061 -25.74525884 23.57563345 -22.68200994 20.49018586 C-20.33773309 18.13147756 -17.98698374 15.7792544 -15.63720703 13.42602539 C-14.36241737 12.13809334 -14.36241737 12.13809334 -13.06187439 10.82414246 C-11.90131783 9.66554214 -11.90131783 9.66554214 -10.71731567 8.48353577 C-10.04373583 7.80681352 -9.37015598 7.13009127 -8.67616463 6.43286228 C-7 5 -7 5 -5 5 C-5 4.34 -5 3.68 -5 3 C-4.34 3 -3.68 3 -3 3 C-3 2.34 -3 1.68 -3 1 C-2.01 0.67 -1.02 0.34 0 0 Z " fill="#31ABED" transform="translate(488,538)"/>
<path d="M0 0 C0.66 0.33 1.32 0.66 2 1 C0.60974609 2.33804687 0.60974609 2.33804687 -0.80859375 3.703125 C-2.01862278 4.88501382 -3.22823665 6.06732778 -4.4375 7.25 C-5.04916016 7.83652344 -5.66082031 8.42304688 -6.29101562 9.02734375 C-6.87431641 9.60097656 -7.45761719 10.17460937 -8.05859375 10.765625 C-8.86768188 11.55114746 -8.86768188 11.55114746 -9.69311523 12.35253906 C-11.12896298 13.90661983 -11.12896298 13.90661983 -11.37973022 15.87774658 C-12.15135715 18.51786859 -13.2911381 19.66548284 -15.23120117 21.60351562 C-15.91248581 22.29102905 -16.59377045 22.97854248 -17.29570007 23.68688965 C-18.03729874 24.41927856 -18.7788974 25.15166748 -19.54296875 25.90625 C-20.30418533 26.66796509 -21.06540192 27.42968018 -21.84968567 28.21447754 C-23.46268681 29.82513773 -25.07938321 31.43210447 -26.69946289 33.03564453 C-29.16918629 35.48186061 -31.62541502 37.94102577 -34.08007812 40.40234375 C-35.65025246 41.96693826 -37.22119163 43.53076565 -38.79296875 45.09375 C-39.52444626 45.82613892 -40.25592377 46.55852783 -41.00956726 47.31311035 C-44.79294343 51.0447493 -48.44991468 54.2450254 -53 57 C-53.66 56.67 -54.32 56.34 -55 56 C-54.43079834 55.43603516 -53.86159668 54.87207031 -53.27514648 54.29101562 C-50.65988156 51.69673231 -48.04867381 49.09840077 -45.4375 46.5 C-44.54224609 45.613125 -43.64699219 44.72625 -42.72460938 43.8125 C-38.05366875 39.15866904 -33.54761401 34.47719338 -29.35961914 29.38085938 C-28.91094482 28.92517578 -28.46227051 28.46949219 -28 28 C-27.34 28 -26.68 28 -26 28 C-25.7525 27.4225 -25.505 26.845 -25.25 26.25 C-23.81700012 23.67060021 -22.21575324 21.93878408 -20 20 C-19.34 20 -18.68 20 -18 20 C-17.74621582 19.42024414 -17.49243164 18.84048828 -17.23095703 18.24316406 C-15.86241385 15.74927777 -14.33002231 14.10256164 -12.3046875 12.109375 C-11.58925781 11.40039062 -10.87382812 10.69140625 -10.13671875 9.9609375 C-9.39035156 9.23132813 -8.64398438 8.50171875 -7.875 7.75 C-7.12089844 7.00492187 -6.36679687 6.25984375 -5.58984375 5.4921875 C-3.73099228 3.6568658 -1.86762995 1.8263809 0 0 Z " fill="#5BC5F7" transform="translate(378,353)"/>
<path d="M0 0 C0 5.97635375 -4.42603105 9.79029083 -8.4375 13.8125 C-9.15389648 14.56563477 -9.15389648 14.56563477 -9.88476562 15.33398438 C-11.30859375 16.76953125 -11.30859375 16.76953125 -14 19 C-15.32 19 -16.64 19 -18 19 C-18 18.34 -18 17.68 -18 17 C-16.6015625 15.625 -16.6015625 15.625 -14.625 14 C-9.45856503 9.62056677 -4.74222476 4.82968383 0 0 Z " fill="#5EC5F7" transform="translate(258,474)"/>
<path d="M0 0 C1.32 0.33 2.64 0.66 4 1 C2.61068357 2.44379943 1.21323422 3.87977512 -0.1875 5.3125 C-0.96480469 6.11300781 -1.74210937 6.91351563 -2.54296875 7.73828125 C-4.91660709 9.9232361 -7.1931507 11.43349327 -10 13 C-10.99 13.66 -11.98 14.32 -13 15 C-11.60249952 11.84164893 -9.94801766 9.67727175 -7.5 7.25 C-6.8915625 6.63640625 -6.283125 6.0228125 -5.65625 5.390625 C-4 4 -4 4 -2 4 C-1.34 2.68 -0.68 1.36 0 0 Z " fill="#5FC5F5" transform="translate(393,338)"/>
<path d="M0 0 C-0.125 1.6875 -0.125 1.6875 -1 4 C-2.41107084 5.21417724 -3.82925921 6.42233765 -5.30078125 7.5625 C-8.23149599 10.0418173 -10.58535877 13.02879253 -13 16 C-13.66 15.67 -14.32 15.34 -15 15 C-12.7938565 10.95904408 -10.19773868 7.92853256 -6.9375 4.6875 C-6.05964844 3.80449219 -5.18179688 2.92148438 -4.27734375 2.01171875 C-2 0 -2 0 0 0 Z " fill="#57C1F3" transform="translate(742,200)"/>
<path d="M0 0 C0.6640625 1.80859375 0.6640625 1.80859375 1 4 C-2.47700752 9.34622584 -8.46512905 12.24424147 -14 15 C-9.59156563 9.70987876 -4.92440206 4.81191572 0 0 Z " fill="#5DC6F8" transform="translate(279,453)"/>
<path d="M0 0 C0 3 0 3 -1 6 C-0.236875 6.37125 0.52625 6.7425 1.3125 7.125 C4.52043115 9.3630915 5.4977816 11.44211433 7 15 C5.0625 14.1875 5.0625 14.1875 3 13 C2.67 12.01 2.34 11.02 2 10 C1.34 10 0.68 10 0 10 C0 9.34 0 8.68 0 8 C-0.99 8 -1.98 8 -3 8 C-3.33 6.35 -3.66 4.7 -4 3 C-2.68 2.01 -1.36 1.02 0 0 Z " fill="#54B4E7" transform="translate(384,640)"/>
<path d="M0 0 C5.65253308 1.37031105 8.5113541 5.67689413 12 10 C11.67 10.66 11.34 11.32 11 12 C9.49410612 10.71520959 7.99542625 9.42195918 6.5 8.125 C5.6646875 7.40570312 4.829375 6.68640625 3.96875 5.9453125 C3.3190625 5.30335938 2.669375 4.66140625 2 4 C2 3.34 2 2.68 2 2 C1.34 2 0.68 2 0 2 C0 1.34 0 0.68 0 0 Z " fill="#48AEE7" transform="translate(398,662)"/>
<path d="M0 0 C0 3 0 3 -2.375 5.6875 C-5 8 -5 8 -7 8 C-7.28875 8.639375 -7.5775 9.27875 -7.875 9.9375 C-9 12 -9 12 -11 13 C-10.35330586 11.65686601 -9.68096422 10.32608822 -9 9 C-8.38125 7.7625 -8.38125 7.7625 -7.75 6.5 C-5.60565274 3.43664678 -3.18218993 1.90931396 0 0 Z " fill="#67C6F4" transform="translate(642,587)"/>
<path d="M0 0 C0 0.99 0 1.98 0 3 C-1.46688037 4.27554815 -2.93976866 5.54881117 -4.4921875 6.71875 C-6.27499979 8.11472845 -6.27499979 8.11472845 -8 11 C-8.66 10.67 -9.32 10.34 -10 10 C-7.19372222 5.25091453 -4.74908547 2.80627778 0 0 Z " fill="#62C3F1" transform="translate(745,484)"/>
<path d="M0 0 C0.33 0.66 0.66 1.32 1 2 C0.278125 2.556875 -0.44375 3.11375 -1.1875 3.6875 C-3.97457299 5.97909334 -6.48641528 8.41459857 -9 11 C-4.53125 1.71875 -4.53125 1.71875 0 0 Z " fill="#5CBDEF" transform="translate(599,630)"/>
<path d="M0 0 C0.66 0.33 1.32 0.66 2 1 C-0.31537955 4.72114571 -2.28579473 7.61229661 -6 10 C-6.66 9.67 -7.32 9.34 -8 9 C-5.36 6.03 -2.72 3.06 0 0 Z " fill="#65C6F5" transform="translate(350,381)"/>
<path d="M0 0 C1.98 0 3.96 0 6 0 C4.12050295 3.57104439 2.82946843 5.54744301 -1 7 C-0.7525 6.1028125 -0.7525 6.1028125 -0.5 5.1875 C0.1114124 2.88655664 0.1114124 2.88655664 0 0 Z " fill="#55BFF2" transform="translate(746,191)"/>
<path d="M0 0 C2.97 0 5.94 0 9 0 C7.515 1.98 7.515 1.98 6 4 C4.125 3.6875 4.125 3.6875 2 3 C1.34 2.01 0.68 1.02 0 0 Z " fill="#63C3F2" transform="translate(335,599)"/>
<path d="M0 0 C1.32 0.33 2.64 0.66 4 1 C1.69 3.31 -0.62 5.62 -3 8 C-3.33 7.01 -3.66 6.02 -4 5 C-3.01 4.67 -2.02 4.34 -1 4 C-0.26676204 1.98491642 -0.26676204 1.98491642 0 0 Z " fill="#5CC2F4" transform="translate(380,559)"/>
<path d="M0 0 C0.99 0.33 1.98 0.66 3 1 C-0.465 3.97 -0.465 3.97 -4 7 C-4 5.35 -4 3.7 -4 2 C-2.68 2 -1.36 2 0 2 C0 1.34 0 0.68 0 0 Z " fill="#60C5F4" transform="translate(533,407)"/>
<path d="M0 0 C0.66 0.33 1.32 0.66 2 1 C0.9024777 3.99324263 0.32317108 4.84610901 -2.625 6.25 C-3.40875 6.4975 -4.1925 6.745 -5 7 C-4.34 5.68 -3.68 4.36 -3 3 C-2.34 3 -1.68 3 -1 3 C-0.67 2.01 -0.34 1.02 0 0 Z " fill="#61C5F4" transform="translate(417,314)"/>
<path d="M0 0 C0.99 0.33 1.98 0.66 3 1 C-0.465 3.97 -0.465 3.97 -4 7 C-3.04065919 3.16263678 -2.76390737 2.40339772 0 0 Z " fill="#5AC2F4" transform="translate(724,216)"/>
<path d="M0 0 C0.99 0.33 1.98 0.66 3 1 C-0.465 3.97 -0.465 3.97 -4 7 C-4.33 6.34 -4.66 5.68 -5 5 C-4.34 5 -3.68 5 -3 5 C-2.67 4.01 -2.34 3.02 -2 2 C-1.34 2 -0.68 2 0 2 C0 1.34 0 0.68 0 0 Z " fill="#63C5F4" transform="translate(358,582)"/>
<path d="M0 0 C0.99 0.33 1.98 0.66 3 1 C-0.465 3.97 -0.465 3.97 -4 7 C-3.67 5.68 -3.34 4.36 -3 3 C-2.34 3 -1.68 3 -1 3 C-0.67 2.01 -0.34 1.02 0 0 Z " fill="#5CC3F3" transform="translate(468,472)"/>
<path d="M0 0 C0.99 0.99 1.98 1.98 3 3 C2.01 2.67 1.02 2.34 0 2 C0 1.34 0 0.68 0 0 Z " fill="#66C1EB" transform="translate(307,573)"/>
<path d="M0 0 C1.98 0.99 1.98 0.99 4 2 C2.68 2 1.36 2 0 2 C0 1.34 0 0.68 0 0 Z " fill="#67BEE5" transform="translate(543,186)"/>
<path d="" fill="#3B94CB" transform="translate(0,0)"/>
<path d="M0 0 C0.33 0.66 0.66 1.32 1 2 C0.34 1.67 -0.32 1.34 -1 1 C-0.67 0.67 -0.34 0.34 0 0 Z " fill="#46A5DA" transform="translate(449,715)"/>
<path d="M0 0 C0.66 0 1.32 0 2 0 C1.67 0.66 1.34 1.32 1 2 C0.67 1.34 0.34 0.68 0 0 Z " fill="#49A5DA" transform="translate(440,707)"/>
<path d="" fill="#68C2EA" transform="translate(0,0)"/>
<path d="M0 0 C0.99 0.495 0.99 0.495 2 1 C1.01 1.495 1.01 1.495 0 2 C0 1.34 0 0.68 0 0 Z " fill="#66B8DC" transform="translate(232,501)"/>
<path d="M0 0 C3 1 3 1 3 1 Z " fill="#66BAE0" transform="translate(736,187)"/>
<path d="M0 0 C3 1 3 1 3 1 Z " fill="#67C2ED" transform="translate(688,187)"/>
<path d="M0 0 C3 1 3 1 3 1 Z " fill="#67C4EC" transform="translate(656,187)"/>
<path d="M0 0 C3 1 3 1 3 1 Z " fill="#67C4EC" transform="translate(616,187)"/>
<path d="M0 0 C3 1 3 1 3 1 Z " fill="#66C2EB" transform="translate(576,187)"/>
<path d="M0 0 C2 1 2 1 2 1 Z " fill="#45A1D9" transform="translate(459,726)"/>
<path d="" fill="#4AA6DA" transform="translate(0,0)"/>
<path d="" fill="#68BEE7" transform="translate(0,0)"/>
<path d="M0 0 C2 1 2 1 2 1 Z " fill="#52B7E8" transform="translate(441,577)"/>
<path d="M0 0 C2 1 2 1 2 1 Z " fill="#65BFE8" transform="translate(304,575)"/>
<path d="M0 0 C2 1 2 1 2 1 Z " fill="#68C1EA" transform="translate(296,565)"/>
<path d="" fill="#69C0EC" transform="translate(0,0)"/>
<path d="M0 0 C2 1 2 1 2 1 Z " fill="#66C9F3" transform="translate(521,496)"/>
<path d="M0 0 C2 1 2 1 2 1 Z " fill="#65C8F5" transform="translate(475,470)"/>
<path d="M0 0 C2 1 2 1 2 1 Z " fill="#6AC8F4" transform="translate(558,468)"/>
<path d="" fill="#68C6F1" transform="translate(0,0)"/>
<path d="" fill="#69C4ED" transform="translate(0,0)"/>
<path d="M0 0 C2 1 2 1 2 1 Z " fill="#66C3ED" transform="translate(608,187)"/>
<path d="M0 0 C2 1 2 1 2 1 Z " fill="#69C3EE" transform="translate(584,187)"/>
<path d="M0 0 C2 1 2 1 2 1 Z " fill="#66BFE8" transform="translate(553,187)"/>
<path d="" fill="#2E3132" transform="translate(0,0)"/>
<path d="" fill="#2473AE" transform="translate(0,0)"/>
<path d="" fill="#2477B3" transform="translate(0,0)"/>
<path d="" fill="#2278B5" transform="translate(0,0)"/>
<path d="" fill="#2479B5" transform="translate(0,0)"/>
<path d="" fill="#237AB5" transform="translate(0,0)"/>
<path d="" fill="#257BB7" transform="translate(0,0)"/>
<path d="" fill="#227AB8" transform="translate(0,0)"/>
<path d="" fill="#257BB9" transform="translate(0,0)"/>
<path d="" fill="#2179B8" transform="translate(0,0)"/>
<path d="" fill="#277BB8" transform="translate(0,0)"/>
<path d="" fill="#277CB9" transform="translate(0,0)"/>
<path d="" fill="#247BB8" transform="translate(0,0)"/>
<path d="" fill="#247BB6" transform="translate(0,0)"/>
<path d="" fill="#2A7EBA" transform="translate(0,0)"/>
<path d="" fill="#2880BC" transform="translate(0,0)"/>
<path d="" fill="#2C84C2" transform="translate(0,0)"/>
<path d="" fill="#2F8AC1" transform="translate(0,0)"/>
<path d="" fill="#2C85C3" transform="translate(0,0)"/>
<path d="" fill="#297EB8" transform="translate(0,0)"/>
<path d="" fill="#3891CA" transform="translate(0,0)"/>
<path d="" fill="#3A97CF" transform="translate(0,0)"/>
<path d="" fill="#409FD6" transform="translate(0,0)"/>
<path d="" fill="#3FA1D9" transform="translate(0,0)"/>
<path d="" fill="#267FBE" transform="translate(0,0)"/>
<path d="" fill="#47A2D6" transform="translate(0,0)"/>
<path d="" fill="#43A2D9" transform="translate(0,0)"/>
<path d="" fill="#47A2D8" transform="translate(0,0)"/>
<path d="" fill="#44A5DA" transform="translate(0,0)"/>
<path d="" fill="#47A4D9" transform="translate(0,0)"/>
<path d="" fill="#2982C1" transform="translate(0,0)"/>
<path d="" fill="#41A2D8" transform="translate(0,0)"/>
<path d="" fill="#45A6DA" transform="translate(0,0)"/>
<path d="" fill="#44A6DC" transform="translate(0,0)"/>
<path d="" fill="#46A7DA" transform="translate(0,0)"/>
<path d="" fill="#45A6DD" transform="translate(0,0)"/>
<path d="" fill="#4AA8DC" transform="translate(0,0)"/>
<path d="" fill="#4BA7DC" transform="translate(0,0)"/>
<path d="" fill="#44A5DC" transform="translate(0,0)"/>
<path d="" fill="#3289C4" transform="translate(0,0)"/>
<path d="" fill="#4BA9DD" transform="translate(0,0)"/>
<path d="" fill="#4EABDC" transform="translate(0,0)"/>
<path d="" fill="#52B4E5" transform="translate(0,0)"/>
<path d="" fill="#53B4E9" transform="translate(0,0)"/>
<path d="" fill="#4FB2E7" transform="translate(0,0)"/>
<path d="" fill="#4EB3E6" transform="translate(0,0)"/>
<path d="" fill="#65BBE1" transform="translate(0,0)"/>
<path d="" fill="#67C1EB" transform="translate(0,0)"/>
<path d="" fill="#54B9EA" transform="translate(0,0)"/>
<path d="" fill="#54BAEA" transform="translate(0,0)"/>
<path d="" fill="#63BFED" transform="translate(0,0)"/>
<path d="" fill="#65C2EC" transform="translate(0,0)"/>
<path d="" fill="#63BDE8" transform="translate(0,0)"/>
<path d="" fill="#66C0E9" transform="translate(0,0)"/>
<path d="" fill="#68C1EE" transform="translate(0,0)"/>
<path d="" fill="#66C2E9" transform="translate(0,0)"/>
<path d="" fill="#6AC0EC" transform="translate(0,0)"/>
<path d="" fill="#65C3EE" transform="translate(0,0)"/>
<path d="" fill="#63BEEB" transform="translate(0,0)"/>
<path d="" fill="#65BEE6" transform="translate(0,0)"/>
<path d="" fill="#66C1EB" transform="translate(0,0)"/>
<path d="" fill="#66C0EB" transform="translate(0,0)"/>
<path d="" fill="#67C4ED" transform="translate(0,0)"/>
<path d="" fill="#67C0EA" transform="translate(0,0)"/>
<path d="" fill="#50B4E7" transform="translate(0,0)"/>
<path d="" fill="#64C5EF" transform="translate(0,0)"/>
<path d="" fill="#65C5F1" transform="translate(0,0)"/>
<path d="" fill="#66C5F1" transform="translate(0,0)"/>
<path d="" fill="#67BFED" transform="translate(0,0)"/>
<path d="" fill="#53B6EC" transform="translate(0,0)"/>
<path d="" fill="#66C5F0" transform="translate(0,0)"/>
<path d="" fill="#64BFE9" transform="translate(0,0)"/>
<path d="" fill="#4DB3E7" transform="translate(0,0)"/>
<path d="" fill="#65C1EB" transform="translate(0,0)"/>
<path d="" fill="#63C4F0" transform="translate(0,0)"/>
<path d="" fill="#52B6E8" transform="translate(0,0)"/>
<path d="" fill="#68BFEA" transform="translate(0,0)"/>
<path d="" fill="#69C4EE" transform="translate(0,0)"/>
<path d="" fill="#66C7F3" transform="translate(0,0)"/>
<path d="" fill="#64C4EF" transform="translate(0,0)"/>
<path d="" fill="#66C1EA" transform="translate(0,0)"/>
<path d="" fill="#67C0ED" transform="translate(0,0)"/>
<path d="" fill="#67C2EC" transform="translate(0,0)"/>
<path d="" fill="#59BAED" transform="translate(0,0)"/>
<path d="" fill="#68C1E9" transform="translate(0,0)"/>
<path d="" fill="#68C0EC" transform="translate(0,0)"/>
<path d="" fill="#5CC0F1" transform="translate(0,0)"/>
<path d="" fill="#68C1EC" transform="translate(0,0)"/>
<path d="" fill="#67C1EC" transform="translate(0,0)"/>
<path d="" fill="#63C5F2" transform="translate(0,0)"/>
<path d="" fill="#63C3EE" transform="translate(0,0)"/>
<path d="" fill="#5FC2F1" transform="translate(0,0)"/>
<path d="" fill="#66C3EC" transform="translate(0,0)"/>
<path d="" fill="#67C0E9" transform="translate(0,0)"/>
<path d="" fill="#5BC1F1" transform="translate(0,0)"/>
<path d="" fill="#65C5F3" transform="translate(0,0)"/>
<path d="" fill="#66C0EA" transform="translate(0,0)"/>
<path d="" fill="#66C0E9" transform="translate(0,0)"/>
<path d="" fill="#63C6F4" transform="translate(0,0)"/>
<path d="" fill="#6BC3EC" transform="translate(0,0)"/>
<path d="" fill="#65C7F3" transform="translate(0,0)"/>
<path d="" fill="#67C0E9" transform="translate(0,0)"/>
<path d="" fill="#62C6F5" transform="translate(0,0)"/>
<path d="" fill="#68BEEA" transform="translate(0,0)"/>
<path d="" fill="#6ABEE8" transform="translate(0,0)"/>
<path d="" fill="#69C0E8" transform="translate(0,0)"/>
<path d="" fill="#64C5F3" transform="translate(0,0)"/>
<path d="" fill="#65C7F5" transform="translate(0,0)"/>
<path d="" fill="#64C7F2" transform="translate(0,0)"/>
<path d="" fill="#68BFE8" transform="translate(0,0)"/>
<path d="" fill="#68BFEA" transform="translate(0,0)"/>
<path d="" fill="#67BFE6" transform="translate(0,0)"/>
<path d="" fill="#68C8F3" transform="translate(0,0)"/>
<path d="" fill="#64C6F5" transform="translate(0,0)"/>
<path d="" fill="#63BAE3" transform="translate(0,0)"/>
<path d="" fill="#69BDE1" transform="translate(0,0)"/>
<path d="" fill="#65C7F3" transform="translate(0,0)"/>
<path d="" fill="#6BB7DA" transform="translate(0,0)"/>
<path d="" fill="#70BADA" transform="translate(0,0)"/>
<path d="" fill="#68C9F3" transform="translate(0,0)"/>
<path d="" fill="#69CCF5" transform="translate(0,0)"/>
<path d="" fill="#6CC2E7" transform="translate(0,0)"/>
<path d="" fill="#6BBDE4" transform="translate(0,0)"/>
<path d="" fill="#64C8F3" transform="translate(0,0)"/>
<path d="" fill="#67C9F3" transform="translate(0,0)"/>
<path d="" fill="#68C7F4" transform="translate(0,0)"/>
<path d="" fill="#6DC8F3" transform="translate(0,0)"/>
<path d="" fill="#6BC4EE" transform="translate(0,0)"/>
<path d="" fill="#6ECAF3" transform="translate(0,0)"/>
<path d="" fill="#66C9F4" transform="translate(0,0)"/>
<path d="" fill="#66C9F4" transform="translate(0,0)"/>
<path d="" fill="#65C6F3" transform="translate(0,0)"/>
<path d="" fill="#66C8F2" transform="translate(0,0)"/>
<path d="" fill="#65C7F3" transform="translate(0,0)"/>
<path d="" fill="#67C7F2" transform="translate(0,0)"/>
<path d="" fill="#69C8F3" transform="translate(0,0)"/>
<path d="" fill="#6CC4EA" transform="translate(0,0)"/>
<path d="" fill="#68CAF2" transform="translate(0,0)"/>
<path d="" fill="#69C9F3" transform="translate(0,0)"/>
<path d="" fill="#6BCAF1" transform="translate(0,0)"/>
<path d="" fill="#69C7F2" transform="translate(0,0)"/>
<path d="" fill="#6BC8F1" transform="translate(0,0)"/>
<path d="" fill="#6AC3EC" transform="translate(0,0)"/>
<path d="" fill="#6AC7F0" transform="translate(0,0)"/>
<path d="" fill="#69C6F2" transform="translate(0,0)"/>
<path d="" fill="#68C6F1" transform="translate(0,0)"/>
<path d="" fill="#68C7F1" transform="translate(0,0)"/>
<path d="" fill="#68C7F1" transform="translate(0,0)"/>
<path d="" fill="#6AC2EA" transform="translate(0,0)"/>
<path d="" fill="#69C5F2" transform="translate(0,0)"/>
<path d="" fill="#69C6F0" transform="translate(0,0)"/>
<path d="" fill="#6AC2EA" transform="translate(0,0)"/>
<path d="" fill="#6BC7F0" transform="translate(0,0)"/>
<path d="" fill="#6CC8F0" transform="translate(0,0)"/>
<path d="" fill="#69C4EE" transform="translate(0,0)"/>
<path d="" fill="#6BC1EA" transform="translate(0,0)"/>
<path d="" fill="#69C5ED" transform="translate(0,0)"/>
<path d="" fill="#6CC7EA" transform="translate(0,0)"/>
<path d="" fill="#69C4EC" transform="translate(0,0)"/>
<path d="" fill="#67C3EC" transform="translate(0,0)"/>
<path d="" fill="#6AC1EB" transform="translate(0,0)"/>
<path d="" fill="#6BC6ED" transform="translate(0,0)"/>
<path d="" fill="#68C3EC" transform="translate(0,0)"/>
<path d="" fill="#69C2EB" transform="translate(0,0)"/>
<path d="" fill="#67C4EC" transform="translate(0,0)"/>
<path d="" fill="#69C3EA" transform="translate(0,0)"/>
<path d="" fill="#6AC5F0" transform="translate(0,0)"/>
<path d="" fill="#6AC6EA" transform="translate(0,0)"/>
<path d="" fill="#69C3EC" transform="translate(0,0)"/>
<path d="" fill="#68C5EF" transform="translate(0,0)"/>
<path d="" fill="#69C1EB" transform="translate(0,0)"/>
<path d="" fill="#69C2EC" transform="translate(0,0)"/>
<path d="" fill="#69C5EA" transform="translate(0,0)"/>
<path d="" fill="#68C2EC" transform="translate(0,0)"/>
<path d="" fill="#69C2EA" transform="translate(0,0)"/>
<path d="" fill="#68C2E9" transform="translate(0,0)"/>
<path d="" fill="#68C3EB" transform="translate(0,0)"/>
<path d="" fill="#66C0E8" transform="translate(0,0)"/>
<path d="" fill="#6ABEE5" transform="translate(0,0)"/>
<path d="" fill="#67BBE2" transform="translate(0,0)"/>
<path d="" fill="#66BCE4" transform="translate(0,0)"/>
<path d="" fill="#67BEE4" transform="translate(0,0)"/>
<path d="" fill="#69BFE8" transform="translate(0,0)"/>
<path d="" fill="#66BFE9" transform="translate(0,0)"/>
<path d="" fill="#64C1EA" transform="translate(0,0)"/>
<path d="" fill="#64C1EA" transform="translate(0,0)"/>
<path d="" fill="#66C1EB" transform="translate(0,0)"/>
<path d="" fill="#67C2ED" transform="translate(0,0)"/>
<path d="" fill="#67C3EE" transform="translate(0,0)"/>
<path d="" fill="#66C3EE" transform="translate(0,0)"/>
<path d="" fill="#66C3EE" transform="translate(0,0)"/>
<path d="" fill="#67C4EE" transform="translate(0,0)"/>
<path d="" fill="#69C4EE" transform="translate(0,0)"/>
<path d="" fill="#68C4EF" transform="translate(0,0)"/>
<path d="" fill="#67C3EE" transform="translate(0,0)"/>
<path d="" fill="#68C3ED" transform="translate(0,0)"/>
<path d="" fill="#67C3EE" transform="translate(0,0)"/>
<path d="" fill="#68C2EC" transform="translate(0,0)"/>
<path d="" fill="#67C2EB" transform="translate(0,0)"/>
</svg>
