<?xml version="1.0" encoding="UTF-8"?>
<svg version="1.1" xmlns="http://www.w3.org/2000/svg" width="1024" height="1024">
<path d="M0 0 C0.96123024 0.36077385 0.96123024 0.36077385 1.94187927 0.72883606 C3.33873505 1.25405383 4.73437194 1.78252235 6.12890625 2.31387329 C8.40391168 3.18066016 10.68194773 4.03901076 12.9609375 4.89526367 C15.43364003 5.8243705 17.90613461 6.75399531 20.37771606 7.68608093 C29.52633199 11.13514075 38.69967662 14.51654884 47.8734436 17.89801025 C78.71323623 29.26940392 109.51807893 40.73429986 140.29031372 52.28720093 C151.71595531 56.57647332 163.14795914 60.84799341 174.58984375 65.09375 C175.2886969 65.35310333 175.98755005 65.61245667 176.70758057 65.87966919 C180.3308412 67.22422515 183.95422403 68.56845154 187.57763672 69.91259766 C254.19658796 94.62747706 254.19658796 94.62747706 276.83032227 103.55297852 C280.61215768 105.03881836 284.41075183 106.40722726 288.27734375 107.65625 C288.52017859 115.47711066 287.77014598 123.00332887 286.75195312 130.75097656 C286.5892392 132.02810013 286.42652527 133.30522369 286.25888062 134.62104797 C285.81358159 138.11491873 285.36053593 141.60774542 284.90607262 145.1004343 C284.4221215 148.8304299 283.94543978 152.56135504 283.46789551 156.29217529 C282.5545952 163.41870573 281.63485424 170.54438952 280.71279192 177.66979098 C279.69574291 185.53154523 278.68571013 193.39419464 277.67640233 201.25694585 C274.7154858 224.32028041 271.73832534 247.38151931 268.75113869 270.44146538 C264.84823503 300.57202072 260.99533295 330.70837396 257.19140625 360.8515625 C256.97268324 362.58439688 256.75395614 364.31723074 256.53522491 366.05006409 C254.53249415 381.9170482 252.53124715 397.78421898 250.53369141 413.65185547 C249.53116762 421.61530784 248.52693155 429.57854239 247.52081716 437.54154193 C246.89392443 442.50388835 246.26906965 447.46648532 245.64583898 452.42929292 C245.26050219 455.49362902 244.87314931 458.55770783 244.48524094 461.62171936 C244.30785514 463.02600094 244.13126984 464.43038394 243.95559692 465.83488083 C243.13700196 472.37618032 242.28148275 478.91193783 241.29391479 485.43006897 C241.07998738 486.85573228 241.07998738 486.85573228 240.8617382 488.31019688 C240.27734375 490.65625 240.27734375 490.65625 238.07617188 493.1574707 C237.16287109 493.62757568 236.24957031 494.09768066 235.30859375 494.58203125 C234.27565186 495.14301514 233.24270996 495.70399902 232.1784668 496.28198242 C230.49491089 497.11693237 230.49491089 497.11693237 228.77734375 497.96875 C227.00500958 498.91638212 225.23270733 499.8640814 223.46257019 500.81581116 C221.62678384 501.79645621 219.78231159 502.75900177 217.93603516 503.71972656 C212.17317633 506.74109778 206.58086747 510.06022511 200.96484375 513.34375 C198.79523339 514.59802065 196.6246737 515.85065074 194.453125 517.1015625 C193.41236816 517.70129883 192.37161133 518.30103516 191.29931641 518.91894531 C186.75686095 521.53036178 182.2047031 524.12465117 177.65234375 526.71875 C167.17451373 532.69275779 156.75881262 538.77157815 146.34765625 544.86083984 C120.18328349 560.16083963 93.94333919 575.32819963 67.6796875 590.45703125 C56.0489564 597.15872136 44.43308935 603.88459617 32.84350586 610.65722656 C28.26170298 613.33423499 23.67760059 616.00683538 19.08203125 618.66015625 C18.26621582 619.13138916 17.45040039 619.60262207 16.60986328 620.08813477 C15.03935636 620.99345756 13.46746067 621.8963764 11.89404297 622.79663086 C8.19910147 624.91984351 4.55965452 627.09243294 0.98046875 629.40625 C0.30121338 629.83832764 -0.37804199 630.27040527 -1.07788086 630.71557617 C-2.34009395 631.52372633 -3.59197177 632.34836597 -4.83032227 633.19262695 C-6.5234375 634.26953125 -6.5234375 634.26953125 -9.72265625 635.65625 C-13.81848202 634.60258967 -17.3319478 632.92347846 -21.00390625 630.85546875 C-21.9990625 630.29730469 -22.99421875 629.73914063 -24.01953125 629.1640625 C-25.0765625 628.56335938 -26.13359375 627.96265625 -27.22265625 627.34375 C-28.33125 626.71855469 -29.43984375 626.09335937 -30.58203125 625.44921875 C-38.58019349 620.92057894 -46.50155886 616.27078128 -54.39477539 611.56225586 C-62.46032808 606.76744592 -70.64328075 602.19575436 -78.84350586 597.63623047 C-86.90750604 593.1420014 -94.85806861 588.49009411 -102.72265625 583.65625 C-103.71265625 584.31625 -104.70265625 584.97625 -105.72265625 585.65625 C-106.05265625 584.99625 -106.38265625 584.33625 -106.72265625 583.65625 C-106.06265625 583.65625 -105.40265625 583.65625 -104.72265625 583.65625 C-104.72265625 582.99625 -104.72265625 582.33625 -104.72265625 581.65625 C-105.78166138 581.26034668 -105.78166138 581.26034668 -106.86206055 580.85644531 C-109.89124683 579.58551592 -112.6434582 578.08862207 -115.4921875 576.453125 C-116.61616943 575.80956055 -117.74015137 575.16599609 -118.89819336 574.50292969 C-120.11058205 573.80415395 -121.32290131 573.10525775 -122.53515625 572.40625 C-123.79359079 571.68372698 -125.05213721 570.96139879 -126.31079102 570.23925781 C-135.27690278 565.08931965 -144.21200567 559.8865353 -153.13647461 554.66479492 C-160.28601917 550.48406349 -167.4652227 546.35835476 -174.66113281 542.25805664 C-184.92809036 536.40565986 -195.1586003 530.49024787 -205.39208984 524.57958984 C-209.75694803 522.05896583 -214.12276533 519.54000859 -218.48925781 517.0222168 C-220.63409345 515.78445035 -222.77798459 514.54504571 -224.92089844 513.30395508 C-229.99341777 510.36863357 -235.07372442 507.45032231 -240.18759155 504.58770752 C-242.6013611 503.23524862 -245.00996082 501.87372826 -247.41821289 500.51147461 C-249.1195428 499.55410396 -250.82825432 498.60988872 -252.53710938 497.66601562 C-254.08108398 496.79106445 -254.08108398 496.79106445 -255.65625 495.8984375 C-256.56431396 495.3916748 -257.47237793 494.88491211 -258.40795898 494.36279297 C-261.80631653 491.85730629 -263.39052415 489.09018769 -264.34243774 484.98042297 C-264.51445206 483.54052254 -264.51445206 483.54052254 -264.68994141 482.0715332 C-264.82663239 480.97722488 -264.96332336 479.88291656 -265.10415649 478.75544739 C-265.23865204 477.58447006 -265.37314758 476.41349274 -265.51171875 475.20703125 C-265.66047455 473.99806686 -265.80923035 472.78910248 -265.9624939 471.54350281 C-266.43524041 467.68649729 -266.89214929 463.82782613 -267.34765625 459.96875 C-267.81306775 456.09935713 -268.28176587 452.23039871 -268.75424194 448.36186218 C-269.0472516 445.95521823 -269.3356411 443.54800655 -269.61904907 441.14021301 C-269.74943573 440.05536118 -269.87982239 438.97050934 -270.01416016 437.8527832 C-270.12724518 436.89523636 -270.2403302 435.93768951 -270.35684204 434.9511261 C-270.60811272 432.63463752 -270.60811272 432.63463752 -271.72265625 430.65625 C-271.90837357 428.63515147 -272.04486647 426.60945421 -272.15820312 424.58300781 C-272.70241193 416.28448336 -273.69822172 408.07491916 -274.75390625 399.828125 C-274.95208955 398.26111661 -275.15004247 396.69407907 -275.34777832 395.12701416 C-275.75884983 391.87618727 -276.17260981 388.62571761 -276.58837891 385.37548828 C-277.12144467 381.2066038 -277.64767514 377.03688876 -278.17197418 372.86689377 C-278.5776525 369.64618123 -278.986824 366.42592007 -279.39707947 363.20578766 C-279.5927185 361.66689888 -279.78727462 360.12787202 -279.98072815 358.58870697 C-280.24987661 356.45157036 -280.52370682 354.31508569 -280.79882812 352.17871094 C-280.95347534 350.96407166 -281.10812256 349.74943237 -281.26745605 348.49798584 C-281.56709112 345.71728453 -281.56709112 345.71728453 -282.72265625 343.65625 C-282.88413365 341.98663615 -282.99652859 340.31225792 -283.08984375 338.63745117 C-283.88823361 327.36395133 -285.44141914 316.16747809 -286.84765625 304.95703125 C-287.15787645 302.46935507 -287.4679324 299.9816584 -287.77783203 297.49394226 C-288.50719239 291.64572185 -289.23978819 285.79791271 -289.97348976 279.95023555 C-290.6423742 274.61603472 -291.30624091 269.28121842 -291.96892738 263.94624454 C-292.68803176 258.15847707 -293.41124819 252.37122999 -294.13616943 246.58418846 C-294.44349974 244.12703598 -294.74969527 241.66974129 -295.05474854 239.21230507 C-295.47957684 235.79383295 -295.90907721 232.37598014 -296.33984375 228.95825195 C-296.46558777 227.93858337 -296.59133179 226.91891479 -296.72088623 225.86834717 C-296.83861389 224.94199966 -296.95634155 224.01565216 -297.07763672 223.06123352 C-297.22916702 221.85043609 -297.22916702 221.85043609 -297.38375854 220.61517811 C-297.63800766 218.58538445 -297.63800766 218.58538445 -298.72265625 216.65625 C-298.90333693 214.4978524 -299.03512441 212.33530103 -299.14453125 210.17211914 C-299.61918744 202.01896301 -300.58940697 193.96274996 -301.64978027 185.86773491 C-301.98209726 183.33025485 -302.30858533 180.79207832 -302.63378906 178.25367737 C-303.32502388 172.86637652 -304.02348436 167.4800256 -304.72265625 162.09375 C-305.53420054 155.8373032 -306.34262369 149.58047484 -307.14489746 143.32283211 C-307.46343831 140.84893351 -307.78673673 138.37568971 -308.11035156 135.90245056 C-309.28400344 126.82667232 -310.19637255 117.79680646 -310.72265625 108.65625 C-297.89363528 103.44399352 -284.9917023 98.44717775 -272.03677368 93.55677795 C-271.39299774 93.31374435 -270.7492218 93.07071075 -270.0859375 92.8203125 C-269.42677338 92.5715184 -268.76760925 92.3227243 -268.08847046 92.06639099 C-262.76707564 90.05582196 -257.45301405 88.02641754 -252.140625 85.9921875 C-228.01106741 76.75686647 -203.81029935 67.72870683 -179.56347656 58.80615234 C-169.82235342 55.22133915 -160.08455815 51.62751078 -150.34765625 48.03125 C-149.38793915 47.67682831 -148.42822205 47.32240662 -147.43942261 46.95724487 C-132.68529087 41.50702515 -117.94959835 36.00920548 -103.22729492 30.47363281 C-93.7246863 26.90162626 -84.21546832 23.34802195 -74.69921875 19.8125 C-73.57700424 19.39535736 -72.45478973 18.97821472 -71.29856873 18.5484314 C-62.2957056 15.20211453 -62.2957056 15.20211453 -57.96353149 13.59649658 C-54.88127757 12.4541217 -51.7999622 11.30924366 -48.71875 10.1640625 C-47.72819107 9.79769684 -46.73763214 9.43133118 -45.71705627 9.05386353 C-40.55237946 7.13210491 -35.42604791 5.14392892 -30.32861328 3.04980469 C-28.76917747 2.41557083 -28.76917747 2.41557083 -27.17823792 1.76852417 C-25.20357405 0.96120587 -23.23432261 0.14046863 -21.27183533 -0.6960144 C-13.21208 -3.97993128 -8.1034418 -3.07346187 0 0 Z M-11.72265625 62.65625 C-18.95031277 76.32547351 -24.95697468 90.52648651 -31.0390625 104.72900391 C-33.64658755 110.81590783 -36.27776332 116.89256772 -38.91015625 122.96875 C-39.17110077 123.5714975 -39.43204529 124.174245 -39.70089722 124.79525757 C-44.96654031 136.95578038 -50.29480874 149.08861123 -55.62701416 161.22006226 C-61.19944734 173.8985733 -66.75421774 186.58458049 -72.28515625 199.28125 C-72.63397858 200.08192902 -72.9828009 200.88260803 -73.3421936 201.70755005 C-75.80314132 207.35677127 -78.26303352 213.00645179 -80.72265625 218.65625 C-95.95932869 253.65516414 -111.21667922 288.64466987 -126.77368164 323.50268555 C-127.09317276 324.21939926 -127.41266388 324.93611298 -127.74183655 325.67454529 C-128.33242779 326.99926629 -128.92378552 328.32364598 -129.51609802 329.64759827 C-130.60985319 332.10177339 -131.68316938 334.55739687 -132.67993164 337.05273438 C-134.18821903 340.81868538 -135.83443315 344.52169532 -137.46875 348.234375 C-137.83537247 349.06898254 -138.20199493 349.90359009 -138.57972717 350.76348877 C-139.77241862 353.47808823 -140.96627653 356.19217296 -142.16015625 358.90625 C-142.98965204 360.7935896 -143.81907874 362.68095956 -144.6484375 364.56835938 C-147.00539684 369.93147959 -149.36374357 375.2939887 -151.72265625 380.65625 C-152.0087677 381.3066626 -152.29487915 381.9570752 -152.58966064 382.62719727 C-154.13366533 386.13702552 -155.67807267 389.64667646 -157.22265625 393.15625 C-159.05635245 397.3227571 -160.88968243 401.48942505 -162.72265625 405.65625 C-163.03956421 406.37665466 -163.35647217 407.09705933 -163.6829834 407.83929443 C-169.37254737 420.77404237 -175.05366467 433.71247173 -180.72265625 446.65625 C-181.24131256 447.8401532 -181.24131256 447.8401532 -181.77044678 449.04797363 C-183.66363706 453.37061977 -185.55324309 457.69479642 -187.43682861 462.02163696 C-187.99708651 463.30756165 -188.55838663 464.59303281 -189.12078857 465.87802124 C-189.88821383 467.63221492 -190.65125654 469.38832396 -191.4140625 471.14453125 C-191.83888916 472.11946533 -192.26371582 473.09439941 -192.70141602 474.09887695 C-193.57495634 476.2863823 -194.22889339 478.35823632 -194.72265625 480.65625 C-193.73265625 480.32625 -192.74265625 479.99625 -191.72265625 479.65625 C-189.59113898 479.56682547 -187.45687474 479.53866101 -185.32348633 479.54272461 C-184.67931259 479.54257858 -184.03513885 479.54243256 -183.3714447 479.5422821 C-181.24499123 479.54297805 -179.11862565 479.55075552 -176.9921875 479.55859375 C-175.51673938 479.56045906 -174.04129064 479.56188243 -172.56584167 479.56288147 C-168.6844003 479.56669774 -164.8029964 479.57652044 -160.92156982 479.58758545 C-156.96008817 479.59781869 -152.99860044 479.60238319 -149.03710938 479.60742188 C-141.26560792 479.6181435 -133.49413734 479.63520925 -125.72265625 479.65625 C-125.31015625 478.57956055 -124.89765625 477.50287109 -124.47265625 476.39355469 C-109.64895818 437.71441509 -109.64895818 437.71441509 -102.72265625 420.65625 C-101.13998252 416.74577209 -99.63926488 412.80869932 -98.15625 408.859375 C-97.66615041 407.55854296 -97.17591204 406.2577632 -96.68554688 404.95703125 C-95.91835613 402.92090158 -95.15199106 400.88447788 -94.38793945 398.84716797 C-93.64651138 396.87113081 -92.90168925 394.89640186 -92.15625 392.921875 C-91.71337646 391.74399414 -91.27050293 390.56611328 -90.81420898 389.35253906 C-89.72265625 386.65625 -89.72265625 386.65625 -88.72265625 385.65625 C-87.39140392 385.52814583 -86.05355199 385.46786785 -84.71655273 385.43505859 C-83.8416922 385.411931 -82.96683167 385.38880341 -82.06546021 385.36497498 C-81.08479584 385.34508011 -80.10413147 385.32518524 -79.09375 385.3046875 C-78.04540985 385.28112686 -76.9970697 385.25756622 -75.91696167 385.23329163 C-72.33146953 385.15784101 -68.74590354 385.09335565 -65.16015625 385.03125 C-63.9204306 385.00845978 -62.68070496 384.98566956 -61.40341187 384.96218872 C-18.84913435 384.22230947 23.72530749 385.07063942 66.27734375 385.65625 C72.75418438 401.46388337 79.15703308 417.29342528 85.33984375 433.21875 C85.97573335 434.85098086 86.61180197 436.48314198 87.24804688 438.11523438 C92.63208003 451.94672338 97.9491333 465.80290282 103.27734375 479.65625 C126.37734375 479.65625 149.47734375 479.65625 173.27734375 479.65625 C169.02537331 468.58494606 169.02537331 468.58494606 164.4140625 457.68359375 C164.06467621 456.88875076 163.71528992 456.09390778 163.35531616 455.27497864 C162.22823411 452.71320113 161.09675198 450.1533983 159.96484375 447.59375 C159.17293079 445.79792428 158.38118532 444.00202469 157.58959961 442.20605469 C155.96450222 438.52104138 154.33715129 434.83703484 152.70800781 431.15380859 C150.72650406 426.67389136 148.74995756 422.19180987 146.77500916 417.70899963 C145.31322441 414.39296777 143.84827204 411.07834346 142.38223267 407.76419067 C141.69192623 406.2026798 141.00260182 404.64073439 140.31430054 403.07833862 C139.35857465 400.91016439 138.39861709 398.74391372 137.4375 396.578125 C137.16014008 395.9466304 136.88278015 395.3151358 136.59701538 394.664505 C135.03834476 391.16611621 133.25658244 387.92975521 131.27734375 384.65625 C130.58773413 382.66404443 129.91655318 380.66519394 129.27734375 378.65625 C128.94734375 378.32625 128.61734375 377.99625 128.27734375 377.65625 C127.90609375 376.46 127.53484375 375.26375 127.15234375 374.03125 C125.59585431 369.27283942 123.55840551 364.8334091 121.39916992 360.32104492 C117.73757207 352.62271261 114.37788071 344.79123996 111.00976562 336.9609375 C110.55537109 335.91550781 110.10097656 334.87007812 109.6328125 333.79296875 C109.02409302 332.38084106 109.02409302 332.38084106 108.40307617 330.94018555 C107.36901736 328.53350169 107.36901736 328.53350169 105.27734375 326.65625 C105.27734375 325.66625 105.27734375 324.67625 105.27734375 323.65625 C104.03692168 321.01097781 102.75713997 318.42911373 101.40234375 315.84375 C100.67186155 314.44344403 99.9452229 313.04112556 99.22265625 311.63671875 C98.89797363 311.01692139 98.57329102 310.39712402 98.23876953 309.75854492 C97.27734375 307.65625 97.27734375 307.65625 96.34570312 304.84057617 C95.17650739 301.35569958 93.75031126 298.07674663 92.23828125 294.7265625 C91.80970322 293.77376907 91.80970322 293.77376907 91.37246704 292.80172729 C90.46847268 290.79366538 89.56048039 288.78744146 88.65234375 286.78125 C88.03489005 285.41157831 87.41769994 284.04178775 86.80078125 282.671875 C85.29601338 279.33195388 83.78765703 275.99366779 82.27734375 272.65625 C81.28734375 272.98625 80.29734375 273.31625 79.27734375 273.65625 C79.51195312 272.82480469 79.7465625 271.99335938 79.98828125 271.13671875 C80.36819229 266.56238451 78.97005399 263.95816804 76.90234375 259.96875 C73.30471061 252.73835059 73.30471061 252.73835059 72.27734375 249.65625 C71.6224102 248.17657216 70.94938718 246.70486018 70.265625 245.23828125 C69.84434326 244.32916992 69.42306152 243.42005859 68.98901367 242.48339844 C68.29642456 240.99114746 68.29642456 240.99114746 67.58984375 239.46875 C64.20133087 232.13369647 60.87182104 224.77827782 57.64453125 217.37109375 C57.33857529 216.66890213 57.03261932 215.96671051 56.71739197 215.24324036 C55.21449893 211.78935863 53.71738598 208.33305905 52.22583008 204.87426758 C49.21155199 197.91107462 46.06406525 191.06121856 42.55004883 184.33105469 C41.19918235 181.49198061 40.25067876 178.64367534 39.27734375 175.65625 C38.52642536 173.85649811 37.74936126 172.06747676 36.94921875 170.2890625 C36.48708984 169.25668457 36.02496094 168.22430664 35.54882812 167.16064453 C35.04673828 166.04544434 34.54464844 164.93024414 34.02734375 163.78125 C32.92753052 161.32329377 31.82840963 158.86504182 30.73046875 156.40625 C30.4454248 155.76841583 30.16038086 155.13058167 29.86669922 154.47341919 C27.08081821 148.23210222 24.34550673 141.96906933 21.61505127 135.70333862 C12.96472521 115.85548848 4.15312153 96.07932398 -4.65478516 76.30102539 C-6.67971151 71.75378972 -8.70165304 67.20523047 -10.72265625 62.65625 C-11.05265625 62.65625 -11.38265625 62.65625 -11.72265625 62.65625 Z " fill="#DA063A" transform="translate(522.72265625,198.34375)"/>
<path d="M0 0 C2.22258077 2.22258077 2.84297905 3.78714055 3.96875 6.703125 C4.56369263 8.23102661 4.56369263 8.23102661 5.1706543 9.78979492 C5.60933838 10.9316626 6.04802246 12.07353027 6.5 13.25 C7.23147991 15.13310274 7.96298167 17.01619704 8.69499207 18.89909363 C9.52166498 21.02735222 10.34606341 23.15648395 11.17041016 25.28564453 C13.15763129 30.41256918 15.16192645 35.53275928 17.16796875 40.65234375 C17.71527397 42.04913109 17.71527397 42.04913109 18.27363586 43.47413635 C19.02798309 45.39925589 19.78234218 47.32437077 20.53671265 49.2494812 C22.47449837 54.19674698 24.40905971 59.14527307 26.34375 64.09375 C29.01744283 70.93234949 31.69298883 77.77021501 34.37199402 84.60673523 C35.80559811 88.26606865 37.23763545 91.92601392 38.66934204 95.58609009 C39.33321317 97.28229148 39.99771344 98.9782468 40.66293335 100.67391968 C45.26062031 112.395155 49.68732088 124.17091367 54 136 C51.65078821 137.1746059 50.31364344 137.10986275 47.69735718 137.08229065 C46.79429337 137.07525116 45.89122955 137.06821167 44.96080017 137.06095886 C43.9674617 137.04801285 42.97412323 137.03506683 41.95068359 137.02172852 C40.90675949 137.01212097 39.86283539 137.00251343 38.78727722 136.99261475 C35.32426388 136.95953839 31.86137332 136.91923896 28.3984375 136.87890625 C26.00233396 136.85461358 23.60622583 136.8307696 21.21011353 136.80735779 C14.89386786 136.74443203 8.57770311 136.67538948 2.26153564 136.60510254 C-4.17977199 136.53449568 -10.62113713 136.46963299 -17.0625 136.40429688 C-29.70839623 136.27517512 -42.35421744 136.13979069 -55 136 C-55 133 -55 133 -53.610672 131.56199646 C-53.07915024 131.04653763 -52.54762848 130.5310788 -52 130 C-51.0031998 128.1219643 -51.0031998 128.1219643 -50.22924805 126.00805664 C-49.91378525 125.20223145 -49.59832245 124.39640625 -49.27330017 123.56616211 C-48.9394783 122.68968018 -48.60565643 121.81319824 -48.26171875 120.91015625 C-47.90417007 119.99041016 -47.5466214 119.07066406 -47.17823792 118.12304688 C-46.00722933 115.10568272 -44.84738861 112.08415412 -43.6875 109.0625 C-42.87999462 106.9761857 -42.07172022 104.89016889 -41.26269531 102.80444336 C-39.62267655 98.57302829 -37.98690966 94.34001021 -36.35498047 90.10546875 C-33.29504408 82.16711771 -30.21024256 74.23849204 -27.12417603 66.31027222 C-26.27879615 64.13654366 -25.43532898 61.96208359 -24.5925293 59.78735352 C-24.06699969 58.43241363 -23.54136759 57.0775135 -23.015625 55.72265625 C-22.76649857 55.08034561 -22.51737213 54.43803497 -22.26069641 53.77626038 C-20.96538066 50.44651811 -19.65218429 47.12495957 -18.31445312 43.81201172 C-18.03921814 43.12981064 -17.76398315 42.44760956 -17.48040771 41.74473572 C-16.71976054 39.8644638 -15.95522505 37.98576621 -15.19042969 36.10717773 C-14.27395021 33.715046 -13.56278112 31.4855582 -13 29 C-10.30923543 22.01735475 -7.22970316 15.1764316 -4.25 8.3125 C-3.94433105 7.60512695 -3.63866211 6.89775391 -3.32373047 6.16894531 C-1.11711104 1.11711104 -1.11711104 1.11711104 0 0 Z " fill="#D70539" transform="translate(512,392)"/>
<path d="M0 0 C2.52766127 2.25370759 3.76121909 4.31171846 5.05078125 7.4296875 C5.4163916 8.30085205 5.78200195 9.1720166 6.15869141 10.06958008 C6.53944824 10.99536865 6.92020508 11.92115723 7.3125 12.875 C8.11711002 14.7935479 8.92309641 16.71151917 9.73046875 18.62890625 C10.12024902 19.55719238 10.5100293 20.48547852 10.91162109 21.44189453 C12.25429161 24.59768226 13.67169744 27.70611475 15.125 30.8125 C19.34505384 39.84225903 23.29656572 48.98951526 27.19921875 58.16015625 C30.70467698 66.39449935 34.2324664 74.59230236 38.07666016 82.67578125 C41.16448708 89.23677407 44.00800979 95.90288826 46.875 102.5625 C52.73495251 116.17017205 58.76011173 129.70005969 64.82592773 143.21704102 C68.89939755 152.29585686 72.94562694 161.38493327 76.9375 170.5 C80.58832736 178.83073336 84.30823054 187.12651679 88.08496094 195.40087891 C108.31578229 239.74447985 108.31578229 239.74447985 115.76171875 258.15625 C116.7418225 260.40708763 117.78023155 262.56595085 118.89453125 264.75 C121.56038949 270.02074702 123.75637759 275.47352827 126 280.93359375 C127.50103534 284.55132345 129.0217536 288.118974 130.81640625 291.6015625 C134.53618621 298.88862778 137.61791005 306.5049316 140.86108398 314.01318359 C145.02472124 323.70649193 145.02472124 323.70649193 149.62890625 333.1953125 C152.00480618 337.83254709 153.81832756 342.61417912 155.64746094 347.48876953 C157.85500937 353.21962903 160.31191874 358.84002781 162.76660156 364.46850586 C163.634232 366.45867637 164.49707578 368.45087396 165.359375 370.44335938 C168.37646215 377.43588965 168.37646215 377.43588965 171.68505859 384.29321289 C173 387 173 387 173 389 C172.34 389 171.68 389 171 389 C170.4440918 387.73784668 170.4440918 387.73784668 169.87695312 386.45019531 C168.0852374 382.38319798 166.29276863 378.31653329 164.5 374.25 C164.17030212 373.50201141 163.84060425 372.75402283 163.50091553 371.98336792 C159.50795987 362.92614942 155.50372582 353.87409705 151.4765625 344.83203125 C151.11040833 344.00965973 150.74425415 343.18728821 150.36700439 342.33999634 C148.58578247 338.340062 146.80284939 334.34090205 145.01757812 330.34277344 C144.36844347 328.88608826 143.71935262 327.42938355 143.0703125 325.97265625 C142.77307281 325.30853226 142.47583313 324.64440826 142.16958618 323.9601593 C140.99755161 321.32675428 139.91231021 318.73693063 139 316 C138.34 315.34 137.68 314.68 137 314 C136.33333333 312.33333333 135.66666667 310.66666667 135 309 C134.34 308.34 133.68 307.68 133 307 C133.66 307 134.32 307 135 307 C134.72438232 306.40388916 134.44876465 305.80777832 134.16479492 305.19360352 C126.9351351 289.53753746 119.89674145 273.80545248 113 258 C112.34 258 111.68 258 111 258 C110.505 256.515 110.505 256.515 110 255 C110.66 255 111.32 255 112 255 C111.4946875 253.94039062 110.989375 252.88078125 110.46875 251.7890625 C109.81229869 250.40113686 109.15605967 249.01311081 108.5 247.625 C108.16613281 246.92632813 107.83226562 246.22765625 107.48828125 245.5078125 C105 240.2265625 105 240.2265625 105 238 C104.34 237.67 103.68 237.34 103 237 C102.28716826 235.01598504 101.62914539 233.01211842 101 231 C99.36645407 226.99100992 97.63210101 223.02823371 95.88696289 219.06665039 C95.33431241 217.80702625 94.78650507 216.5452668 94.2434082 215.28149414 C93.45523364 213.44747711 92.65167185 211.62009669 91.84765625 209.79296875 C91.37336182 208.7052417 90.89906738 207.61751465 90.41040039 206.49682617 C89.19419535 203.69224426 89.19419535 203.69224426 86 203 C86.07089844 202.15695312 86.14179687 201.31390625 86.21484375 200.4453125 C85.95785382 196.32412855 84.50992704 193.419241 82.5625 189.875 C79.10592714 183.4272938 79.10592714 183.4272938 78.52392578 181.07958984 C77.92797159 178.71410157 77.02480761 176.69277542 75.98828125 174.484375 C75.56683838 173.57824463 75.14539551 172.67211426 74.71118164 171.73852539 C74.01883423 170.25920532 74.01883423 170.25920532 73.3125 168.75 C67.08218915 155.30950603 61.14862424 141.74486186 55.25080872 128.15597534 C53.42801367 123.96068207 51.56083883 119.78779249 49.64428711 115.63452148 C49 114 49 114 49 112 C48.01 111.67 47.02 111.34 46 111 C46.66 111 47.32 111 48 111 C47.46632813 109.89527344 46.93265625 108.79054688 46.3828125 107.65234375 C40.26242796 94.90339897 34.58539672 81.99048805 29 69 C27.22870419 64.88921195 25.455035 60.77945867 23.67843628 56.67095947 C23.14365641 55.43393951 22.60925168 54.19675729 22.07522583 52.95941162 C18.64317201 45.01030953 15.15622571 37.08783853 11.61328125 29.1875 C11.24468994 28.36424728 10.87609863 27.54099457 10.49633789 26.6927948 C8.68086899 22.63873126 6.85968813 18.5874106 5.02880859 14.5402832 C4.36663497 13.06471774 3.70467744 11.58905527 3.04296875 10.11328125 C2.73426346 9.43656372 2.42555817 8.75984619 2.10749817 8.06262207 C0.82441134 5.18770687 0 3.18720789 0 0 Z " fill="#B9102F" transform="translate(516,269)"/>
<path d="M0 0 C1.11025921 0.01281384 2.22051842 0.02562767 3.36442184 0.0388298 C17.20146208 0.19978435 31.03829956 0.37466133 44.875 0.5625 C48.36857087 7.26934283 51.3728064 14.03300955 54.0625 21.09765625 C54.44246628 22.08296829 54.82243256 23.06828033 55.21391296 24.08345032 C56.43881959 27.26223991 57.65700341 30.44355713 58.875 33.625 C60.56702085 38.02550637 62.26204622 42.42485343 63.95703125 46.82421875 C64.37555862 47.91196594 64.794086 48.99971313 65.22529602 50.12042236 C67.78594842 56.76754549 70.37818354 63.40095548 73.01171875 70.01953125 C73.32053986 70.79661942 73.62936096 71.57370758 73.94754028 72.37434387 C75.0957512 75.26118595 76.24483703 78.14761632 77.40405273 81.03005981 C78.17330305 82.94287385 78.93672906 84.85792095 79.69921875 86.7734375 C80.12291748 87.82837402 80.54661621 88.88331055 80.9831543 89.97021484 C81.875 92.5625 81.875 92.5625 81.875 95.5625 C104.645 95.2325 127.415 94.9025 150.875 94.5625 C148.895 89.9425 146.915 85.3225 144.875 80.5625 C145.205 79.2425 145.535 77.9225 145.875 76.5625 C147.875 78.5625 147.875 78.5625 148.875 81.5625 C149.205 81.5625 149.535 81.5625 149.875 81.5625 C150.29817708 83.38541667 150.72135417 85.20833333 151.14453125 87.03125 C152.17711115 90.60938782 153.56736372 94.07546991 154.875 97.5625 C130.125 97.5625 105.375 97.5625 79.875 97.5625 C78.555 92.9425 77.235 88.3225 75.875 83.5625 C74.93669784 81.20367964 73.94884845 78.86278127 72.875 76.5625 C72.33110917 75.28514504 71.79369266 74.00501997 71.26171875 72.72265625 C70.98650391 72.06080322 70.71128906 71.3989502 70.42773438 70.71704102 C67.54241811 63.74066544 64.7722158 56.73650178 62.14526367 49.65893555 C60.25684513 44.57137255 58.33374326 39.49843435 56.375 34.4375 C55.93764526 33.30658936 55.93764526 33.30658936 55.49145508 32.15283203 C53.21174423 26.31063726 50.73748742 20.57853404 48.13671875 14.87109375 C46.875 11.5625 46.875 11.5625 44.875 2.5625 C-6.605 2.8925 -58.085 3.2225 -111.125 3.5625 C-110.795 2.5725 -110.465 1.5825 -110.125 0.5625 C-73.40215986 -0.48212185 -36.73247154 -0.42426129 0 0 Z " fill="#BB1A3A" transform="translate(544.125,582.4375)"/>
<path d="M0 0 C4.67748854 0.55063781 8.76087283 1.46240661 13.16015625 3.1328125 C13.75786331 3.35714966 14.35557037 3.58148682 14.97138977 3.81262207 C16.29588867 4.31069463 17.61915778 4.81204659 18.94134521 5.31622314 C21.93342077 6.4570741 24.93142691 7.58199443 27.92889404 8.70858765 C29.64734972 9.3547408 31.36547599 10.00177051 33.08331299 10.64956665 C41.07209371 13.66012996 49.0757147 16.63022543 57.08203125 19.59375 C58.4289009 20.09243297 59.77576876 20.59112075 61.12263489 21.08981323 C65.86610631 22.84595572 70.6097035 24.60175845 75.35347366 26.35709381 C90.17477914 31.84166927 104.98569789 37.35140918 119.76171875 42.95703125 C120.93918671 43.40370148 122.11665466 43.8503717 123.32980347 44.31057739 C130.74827189 47.13068059 138.15524687 49.97892883 145.53811646 52.89108276 C149.32501408 54.37853748 153.12834626 55.74934214 157 57 C157.19731278 64.39171724 156.60832961 71.50259625 155.65478516 78.82788086 C155.51169418 79.96569 155.36860321 81.10349915 155.22117615 82.27578735 C154.75019799 86.00631628 154.27002855 89.73559037 153.7890625 93.46484375 C153.45722897 96.06649247 153.12572142 98.6681828 152.79452515 101.26991272 C152.10138959 106.70634295 151.40275707 112.14204686 150.70117188 117.57739258 C149.89046429 123.85894686 149.09021204 130.14177088 148.29508555 136.42531484 C147.52799489 142.48428298 146.75205045 148.54208354 145.97248459 154.59945869 C145.64232465 157.17283727 145.31462234 159.74653236 144.98939896 162.32053947 C144.53520376 165.90734809 144.07095174 169.49271333 143.60400391 173.07788086 C143.40439812 174.67919106 143.40439812 174.67919106 143.20075989 176.31285095 C143.07179825 177.28697937 142.94283661 178.26110779 142.80996704 179.26475525 C142.70119547 180.11179992 142.5924239 180.95884459 142.48035622 181.83155727 C142 184 142 184 140 187 C139.63540181 176.28486437 140.72983326 166.24168245 142.375 155.6875 C142.82448494 152.73369546 143.26846992 149.7790819 143.7109375 146.82421875 C143.82226517 146.08452347 143.93359283 145.34482819 144.04829407 144.5827179 C144.86538132 139.0870387 145.54730594 133.58275904 146.17512512 128.06195068 C147.49886441 116.50361698 149.05788965 104.97336066 150.5625 93.4375 C151.03832533 89.78226341 151.51385939 86.12698907 151.98924255 82.47169495 C152.28275528 80.2155802 152.57657089 77.95950484 152.8707428 75.70347595 C153.59584547 70.13746923 154.31001952 64.57047311 155 59 C153.865625 58.62875 152.73125 58.2575 151.5625 57.875 C131.80744974 51.26921032 131.80744974 51.26921032 123.3125 47.625 C113.13283386 43.26832848 102.6095224 39.72438875 92.18847656 35.9934082 C86.3598151 33.89425712 80.60770306 31.65925935 74.875 29.3125 C66.30738911 25.84549249 57.65318061 22.67706917 48.9465332 19.57861328 C40.44756492 16.54461208 31.99804458 13.3925443 23.5625 10.1875 C22.36052979 9.73141357 21.15855957 9.27532715 19.92016602 8.80541992 C13.25416522 6.26654798 6.61178642 3.6769856 0 1 C0 0.67 0 0.34 0 0 Z " fill="#B71230" transform="translate(654,249)"/>
<path d="M0 0 C0.99 0.33 1.98 0.66 3 1 C-17.15214276 12.78518412 -37.34268269 24.50246956 -57.625 36.0625 C-68.10277037 42.03661453 -78.51852956 48.11532723 -88.9296875 54.20458984 C-115.09406026 69.50458963 -141.33400456 84.67194963 -167.59765625 99.80078125 C-179.22838735 106.50247136 -190.8442544 113.22834617 -202.43383789 120.00097656 C-207.01564077 122.67798499 -211.59974316 125.35058538 -216.1953125 128.00390625 C-217.01112793 128.47513916 -217.82694336 128.94637207 -218.66748047 129.43188477 C-220.23798739 130.33720756 -221.80988308 131.2401264 -223.38330078 132.14038086 C-227.07824228 134.26359351 -230.71768923 136.43618294 -234.296875 138.75 C-234.97613037 139.18207764 -235.65538574 139.61415527 -236.35522461 140.05932617 C-237.6174377 140.86747633 -238.86931552 141.69211597 -240.10766602 142.53637695 C-241.80078125 143.61328125 -241.80078125 143.61328125 -245 145 C-249.24418487 143.92231384 -252.83265324 142.1296032 -256.6171875 139.9609375 C-257.63554687 139.38085938 -258.65390625 138.80078125 -259.703125 138.203125 C-260.74984375 137.59984375 -261.7965625 136.9965625 -262.875 136.375 C-263.94492187 135.76398438 -265.01484375 135.15296875 -266.1171875 134.5234375 C-268.74755755 133.0203689 -271.37500926 131.51243714 -274 130 C-271.47826441 129.05873338 -270.36852223 128.85024891 -267.83349609 129.88037109 C-267.07117676 130.34008301 -266.30885742 130.79979492 -265.5234375 131.2734375 C-264.27046875 132.0159375 -264.27046875 132.0159375 -262.9921875 132.7734375 C-262.12851562 133.30195312 -261.26484375 133.83046875 -260.375 134.375 C-258.65368655 135.40371396 -256.93233427 136.43236296 -255.2109375 137.4609375 C-254.45087402 137.92290527 -253.69081055 138.38487305 -252.90771484 138.86083984 C-249.3158625 141.00565467 -247.24170874 141.47130097 -243 141 C-241.23777639 140.0872357 -241.23777639 140.0872357 -239.453125 138.85546875 C-233.65206407 135.10003808 -227.61865268 131.76719422 -221.6015625 128.37304688 C-216.04098046 125.22846474 -216.04098046 125.22846474 -210.65625 121.796875 C-208.20056072 120.13567343 -205.74043516 118.70377781 -203.125 117.3125 C-192.81084165 111.7436919 -182.59547883 106.08160855 -172.6875 99.8125 C-166.57954215 95.94838608 -160.3786124 92.40192661 -154 89 C-141.23374408 82.20795194 -141.23374408 82.20795194 -129.1171875 74.3515625 C-126.62586352 72.76116011 -124.00528776 71.5117707 -121.35546875 70.20947266 C-116.64921316 67.79293139 -112.12048865 65.05760027 -107.5625 62.375 C-106.49918457 61.75181885 -105.43586914 61.1286377 -104.34033203 60.48657227 C-101.22543123 58.66018251 -98.11252264 56.83043878 -95 55 C-93.47535508 54.10530742 -91.95062675 53.21075694 -90.42578125 52.31640625 C-84.55281945 48.86844529 -78.68552298 45.41204913 -72.83984375 41.91796875 C-62.66897262 35.85194571 -52.42356331 30.00273533 -41.99414062 24.39257812 C-35.21579354 20.72320692 -28.62874954 16.80594142 -22.08227539 12.73974609 C-17.22738749 9.72797398 -12.31554022 6.88807922 -7.26171875 4.21875 C-4.89947134 2.98901052 -4.89947134 2.98901052 -2.39453125 1.28125 C-1.60433594 0.8584375 -0.81414062 0.435625 0 0 Z " fill="#B2102C" transform="translate(758,689)"/>
<path d="M0 0 C0.33 0 0.66 0 1 0 C1.22744983 8.67410885 0.5635145 16.98959022 -0.60180664 25.57958984 C-0.77545251 26.9033194 -0.9483588 28.22714614 -1.12059593 29.55105972 C-1.49236362 32.39820745 -1.8687313 35.24469342 -2.24877739 38.09074783 C-2.86330497 42.69457174 -3.46677795 47.29980386 -4.06813049 51.90536499 C-4.27800355 53.51218644 -4.48787964 55.1190075 -4.69775867 56.72582817 C-4.80319701 57.53321552 -4.90863534 58.34060287 -5.01726878 59.1724565 C-5.34357069 61.66832704 -5.67086473 64.16406581 -5.99838543 66.65977669 C-8.2329958 83.70020042 -10.38693907 100.75059026 -12.53236008 117.80243683 C-13.18392253 122.98073678 -13.83720499 128.15881878 -14.49087524 133.33685303 C-16.26213847 147.369333 -18.03192141 161.40199861 -19.79858398 175.43505859 C-20.79635318 183.36048094 -21.79583172 191.2856858 -22.79719692 199.21065462 C-23.41990033 204.1395553 -24.04057885 209.0687049 -24.65963256 213.99806523 C-25.04169079 217.03617633 -25.42576478 220.07403012 -25.81039619 223.11181641 C-25.98616996 224.50320434 -26.16114385 225.89469363 -26.33520508 227.28629684 C-27.37067514 235.56053075 -28.55719024 243.78655309 -30 252 C-30.33 252 -30.66 252 -31 252 C-31.27558858 245.18683796 -30.84666409 238.51816839 -30.125 231.75 C-30.04652832 231.01354248 -29.96805664 230.27708496 -29.88720703 229.51831055 C-28.73525346 219.17615537 -27.28137289 208.87071953 -25.78125 198.57421875 C-23.57801046 183.38058161 -21.499454 168.28576591 -20.6328125 152.9440918 C-20.57480469 151.97511963 -20.51679687 151.00614746 -20.45703125 150.0078125 C-20.41553955 149.17910645 -20.37404785 148.35040039 -20.33129883 147.49658203 C-20 145 -20 145 -19.04101562 142.23461914 C-17.75631644 138.24283219 -17.31977292 134.39585824 -16.88671875 130.23828125 C-16.7921489 129.38731369 -16.69757904 128.53634613 -16.60014343 127.65959167 C-16.39688959 125.83030711 -16.19625231 124.00073027 -15.99798584 122.17089844 C-14.37630579 107.24136822 -12.57431859 92.35546983 -10.375 77.5 C-8.73249665 66.36867658 -7.28567863 55.2394527 -6.09765625 44.04882812 C-5.2088278 35.72111159 -4.20983732 27.41160409 -3.14480591 19.1048584 C-2.96633073 17.7125057 -2.78896502 16.32001029 -2.61276245 14.92736816 C-2.36753328 12.9928248 -2.11746673 11.0588965 -1.8671875 9.125 C-1.72394043 8.01382812 -1.58069336 6.90265625 -1.43310547 5.7578125 C-1 3 -1 3 0 0 Z " fill="#AF152F" transform="translate(793,437)"/>
<path d="M0 0 C2.22258077 2.22258077 2.84297905 3.78714055 3.96875 6.703125 C4.56369263 8.23102661 4.56369263 8.23102661 5.1706543 9.78979492 C5.60933838 10.9316626 6.04802246 12.07353027 6.5 13.25 C7.23147991 15.13310274 7.96298167 17.01619704 8.69499207 18.89909363 C9.52166498 21.02735222 10.34606341 23.15648395 11.17041016 25.28564453 C13.15763129 30.41256918 15.16192645 35.53275928 17.16796875 40.65234375 C17.71527397 42.04913109 17.71527397 42.04913109 18.27363586 43.47413635 C19.02798309 45.39925589 19.78234218 47.32437077 20.53671265 49.2494812 C22.47449837 54.19674698 24.40905971 59.14527307 26.34375 64.09375 C29.01744283 70.93234949 31.69298883 77.77021501 34.37199402 84.60673523 C35.80559811 88.26606865 37.23763545 91.92601392 38.66934204 95.58609009 C39.33321317 97.28229148 39.99771344 98.9782468 40.66293335 100.67391968 C45.26062031 112.395155 49.68732088 124.17091367 54 136 C51.6775971 137.16120145 50.39417508 137.11029828 47.81124878 137.08229065 C46.93342743 137.07525116 46.05560608 137.06821167 45.15118408 137.06095886 C44.18589783 137.04801285 43.22061157 137.03506683 42.22607422 137.02172852 C41.21141083 137.01212097 40.19674744 137.00251343 39.15133667 136.99261475 C35.7857182 136.95954096 32.42022616 136.91924055 29.0546875 136.87890625 C26.72584483 136.85461332 24.39699744 136.83076936 22.06814575 136.80735779 C15.92944979 136.74443454 9.79083713 136.67539127 3.65222168 136.60510254 C-2.60811561 136.53449343 -8.8685121 136.46963208 -15.12890625 136.40429688 C-27.4193359 136.27517834 -39.70968524 136.13959876 -52 136 C-52 135.67 -52 135.34 -52 135 C-1.015 134.505 -1.015 134.505 51 134 C41.54186813 109.98337975 41.54186813 109.98337975 32 86 C29.375 78.5625 29.375 78.5625 28.1484375 75.06640625 C26.98224244 71.9525861 25.5933952 69.1147181 24.03515625 66.1875 C22.1057962 62.11036178 20.72173603 57.82009085 19.24609375 53.5625 C15.87274926 43.91833016 11.95163824 34.51673541 8.02734375 25.0859375 C5.30658127 18.47307611 2.87073998 11.90476707 1 5 C0.34 5 -0.32 5 -1 5 C-1.99 7.97 -2.98 10.94 -4 14 C-4.66 14 -5.32 14 -6 14 C-4.45941767 8.98491285 -2.97068161 4.3852919 0 0 Z " fill="#B00B25" transform="translate(512,392)"/>
<path d="M0 0 C4.44459467 0.02841409 8.88900008 0.04508101 13.3336792 0.05194092 C18.63987304 0.06106034 23.9453479 0.09493633 29.25128174 0.14771461 C31.23457945 0.16354716 33.21796404 0.17091849 35.20132446 0.16953087 C37.93219067 0.16933652 40.66101669 0.19993865 43.39157104 0.23849487 C44.19680175 0.23143744 45.00203245 0.22438002 45.83166409 0.21710873 C48.06306458 0.26782227 48.06306458 0.26782227 51.71603394 0.91378784 C54.04446664 3.65707648 54.66511617 5.15002131 54.90353394 8.72628784 C54.84165894 9.44816284 54.77978394 10.17003784 54.71603394 10.91378784 C52.71603394 7.91378784 52.71603394 7.91378784 51.71603394 2.91378784 C0.23603394 3.24378784 -51.24396606 3.57378784 -104.28396606 3.91378784 C-103.95396606 2.92378784 -103.62396606 1.93378784 -103.28396606 0.91378784 C-68.85797957 -0.06549746 -34.43766762 -0.22428347 0 0 Z " fill="#BE1C3D" transform="translate(537.2839660644531,582.0862121582031)"/>
<path d="M0 0 C0.5625 1.9375 0.5625 1.9375 1 4 C0 5 0 5 -2.81568909 5.12025452 C-4.70431923 5.1169236 -4.70431923 5.1169236 -6.63110352 5.11352539 C-7.32375305 5.11367142 -8.01640259 5.11381744 -8.7300415 5.1139679 C-11.02969446 5.11326874 -13.32926737 5.10547628 -15.62890625 5.09765625 C-17.21931412 5.09579208 -18.80972257 5.09436817 -20.40013123 5.09336853 C-24.5939593 5.08954329 -28.78775295 5.07971295 -32.98156738 5.06866455 C-37.25788914 5.05845057 -41.53421644 5.05387094 -45.81054688 5.04882812 C-54.20704708 5.03809069 -62.60351926 5.02101419 -71 5 C-67.54979077 1.78480397 -65.12358457 1.65389422 -60.48730469 1.7512207 C-59.52082504 1.76519394 -59.52082504 1.76519394 -58.53482056 1.77944946 C-56.41329385 1.81371957 -54.29292578 1.86962663 -52.171875 1.92578125 C-50.69788044 1.95382508 -49.22385954 1.98051435 -47.74981689 2.00590515 C-43.87625859 2.07626328 -40.00333161 2.16499584 -36.13024902 2.25756836 C-32.17559119 2.34883437 -28.22061262 2.42270711 -24.265625 2.49804688 C-16.50999822 2.64834925 -8.75495606 2.81806569 -1 3 C-0.67 2.01 -0.34 1.02 0 0 Z " fill="#CF1A3D" transform="translate(398,675)"/>
<path d="M0 0 C8.06003038 2.24593587 15.821218 5.11928829 23.625 8.125 C25.53633528 8.85657803 27.44815977 9.58686773 29.36000061 10.31712341 C30.65437748 10.81163683 31.94859746 11.30656112 33.24266052 11.80189514 C39.75477198 14.29356106 46.28218697 16.74396946 52.8125 19.1875 C53.84391113 19.57373535 54.87532227 19.9599707 55.93798828 20.35791016 C58.29180124 21.23911863 60.64579076 22.1198509 63 23 C62.34 23.66 61.68 24.32 61 25 C59.91460938 24.59007812 58.82921875 24.18015625 57.7109375 23.7578125 C56.26564731 23.21348243 54.82033356 22.66921491 53.375 22.125 C52.66214844 21.85558594 51.94929687 21.58617187 51.21484375 21.30859375 C50.51230469 21.04433594 49.80976562 20.78007812 49.0859375 20.5078125 C48.4470459 20.26691895 47.8081543 20.02602539 47.14990234 19.77783203 C45.49443241 19.17888504 43.82725111 18.61223788 42.15576172 18.05957031 C38.87942543 16.9595162 35.65312276 15.76507694 32.421875 14.5390625 C31.81039612 14.3072226 31.19891724 14.07538269 30.56890869 13.83651733 C29.28123221 13.34797449 27.99378011 12.85883987 26.70654297 12.36914062 C24.7698025 11.63253157 22.83222841 10.89815067 20.89453125 10.1640625 C13.90185602 7.51071804 6.93043598 4.81232145 0 2 C0 1.34 0 0.68 0 0 Z " fill="#C61536" transform="translate(520,198)"/>
<path d="M0 0 C3 2 3 2 4 5 C4.33 5 4.66 5 5 5 C5.42317708 6.82291667 5.84635417 8.64583333 6.26953125 10.46875 C7.30211115 14.04688782 8.69236372 17.51296991 10 21 C-14.09 21 -38.18 21 -63 21 C-63 20.67 -63 20.34 -63 20 C-28.35 19.505 -28.35 19.505 7 19 C4.69 14.05 2.38 9.1 0 4 C0 2.68 0 1.36 0 0 Z " fill="#A5001C" transform="translate(689,659)"/>
<path d="M0 0 C3.48611275 0.56580888 6.13593468 1.41839365 9.1875 3.1875 C9.96738281 3.63609375 10.74726563 4.0846875 11.55078125 4.546875 C14.84361649 6.50051887 18.12039306 8.4800561 21.39453125 10.46484375 C24.08268684 12.04871954 26.81059888 13.53001656 29.5625 15 C43.18055556 22.36111111 43.18055556 22.36111111 45 26 C41.69684605 24.74074054 38.64761969 23.33089672 35.5859375 21.56640625 C34.7508667 21.08727783 33.9157959 20.60814941 33.05541992 20.11450195 C32.17088135 19.60234131 31.28634277 19.09018066 30.375 18.5625 C29.00275269 17.77202271 29.00275269 17.77202271 27.6027832 16.96557617 C25.6945409 15.86575825 23.78708068 14.76458236 21.88037109 13.66210938 C19.0562188 12.03244089 16.22627825 10.41330352 13.39453125 8.796875 C11.65874041 7.80228185 9.92305865 6.80749827 8.1875 5.8125 C7.36362793 5.34336182 6.53975586 4.87422363 5.69091797 4.39086914 C4.94084473 3.95895264 4.19077148 3.52703613 3.41796875 3.08203125 C2.75563232 2.70280518 2.0932959 2.3235791 1.41088867 1.93286133 C0.94529541 1.62501709 0.47970215 1.31717285 0 1 C0 0.67 0 0.34 0 0 Z " fill="#C31234" transform="translate(439,792)"/>
<path d="M0 0 C0.66 0 1.32 0 2 0 C1.69078116 1.45903258 1.37751201 2.91720722 1.0625 4.375 C0.80146484 5.59316406 0.80146484 5.59316406 0.53515625 6.8359375 C0 9 0 9 -1 11 C-1.66 11 -2.32 11 -3 11 C-3.38027344 12.216875 -3.76054687 13.43375 -4.15234375 14.6875 C-6.2433598 20.95440892 -8.89911723 26.95926587 -11.5625 33 C-12.05685547 34.14339844 -12.55121094 35.28679688 -13.06054688 36.46484375 C-13.53685547 37.54894531 -14.01316406 38.63304687 -14.50390625 39.75 C-14.93517822 40.73484375 -15.3664502 41.7196875 -15.81079102 42.734375 C-17 45 -17 45 -19 46 C-16.54008558 38.10103605 -13.353481 30.58334766 -10.0625 23 C-9.53157456 21.76836985 -9.00097376 20.53659971 -8.47070312 19.3046875 C-5.686771 12.85181855 -2.86899374 6.41548479 0 0 Z " fill="#C51333" transform="translate(392,527)"/>
<path d="M0 0 C1.48305129 4.56893381 -0.210928 7.60465123 -2.11328125 11.79296875 C-2.44289352 12.53960281 -2.7725058 13.28623688 -3.11210632 14.05549622 C-3.81036584 15.63051235 -4.51426998 17.20303641 -5.22338867 18.77319336 C-6.31062687 21.18334771 -7.37826109 23.60147685 -8.44335938 26.02148438 C-9.12385865 27.54998781 -9.80546182 29.07800037 -10.48828125 30.60546875 C-10.80920242 31.33146774 -11.1301236 32.05746674 -11.46076965 32.8054657 C-13.76835607 37.88417804 -13.76835607 37.88417804 -16 39 C-13.94103587 32.58821169 -11.63324676 26.31149409 -9.125 20.0625 C-8.77566406 19.18948242 -8.42632812 18.31646484 -8.06640625 17.41699219 C-5.65686341 11.46204268 -3.08736766 5.64038323 0 0 Z " fill="#C10F2F" transform="translate(501,278)"/>
<path d="M0 0 C5.41498267 0.4900061 8.80728744 2.43713018 13.25 5.3125 C18.96669573 8.89064693 24.57949294 11.83968821 31 14 C29.31420898 15.14306641 29.31420898 15.14306641 27 16 C24.60571289 15.18896484 24.60571289 15.18896484 21.97265625 13.7109375 C21.01552734 13.18113281 20.05839844 12.65132812 19.07226562 12.10546875 C18.07904297 11.53441406 17.08582031 10.96335937 16.0625 10.375 C15.07314453 9.82714844 14.08378906 9.27929688 13.06445312 8.71484375 C8.42207473 6.11111572 4.00403147 3.54568662 0 0 Z " fill="#BE1737" transform="translate(484,818)"/>
<path d="M0 0 C2.72772048 2.72772048 3.7460131 5.97005745 5.125 9.5 C5.40214844 10.18964844 5.67929687 10.87929688 5.96484375 11.58984375 C8 16.73287408 8 16.73287408 8 19 C7.34 19 6.68 19 6 19 C5.16235732 17.04350603 4.33000941 15.08474444 3.5 13.125 C3.0359375 12.03445313 2.571875 10.94390625 2.09375 9.8203125 C1 7 1 7 1 5 C0.34 5 -0.32 5 -1 5 C-1.99 7.97 -2.98 10.94 -4 14 C-4.66 14 -5.32 14 -6 14 C-4.45941767 8.98491285 -2.97068161 4.3852919 0 0 Z " fill="#C21536" transform="translate(512,392)"/>
<path d="M0 0 C7.86379677 2.18340181 15.41675284 4.99285026 23 8 C23 11.3 23 14.6 23 18 C22.67 18 22.34 18 22 18 C21.67 15.36 21.34 12.72 21 10 C19.7625 9.608125 18.525 9.21625 17.25 8.8125 C11.36792078 6.86118823 5.69401218 4.43753821 0 2 C0 1.34 0 0.68 0 0 Z " fill="#B61937" transform="translate(788,298)"/>
<path d="M0 0 C6.60593147 1.8409973 11.69553086 4.49276099 17.40234375 8.28125 C20.52513887 10.3474603 23.72815837 12.18231021 27 14 C27 14.66 27 15.32 27 16 C22.40994919 14.33577105 18.29300687 12.02896491 14.0625 9.625 C13.37220703 9.23828125 12.68191406 8.8515625 11.97070312 8.453125 C7.85868586 6.13012757 3.85176099 3.73661892 0 1 C0 0.67 0 0.34 0 0 Z " fill="#C61236" transform="translate(365,749)"/>
<path d="M0 0 C0.66 0 1.32 0 2 0 C0.39720685 9.35256222 -3.31708976 18.76453717 -8 27 C-8.66 27.33 -9.32 27.66 -10 28 C-7.46277869 18.38272302 -3.66846291 9.22643548 0 0 Z " fill="#CD1336" transform="translate(411,639)"/>
<path d="M0 0 C3 2 3 2 4 5 C4.33 5 4.66 5 5 5 C5.268125 6.155 5.53625 7.31 5.8125 8.5 C6.88385122 12.81623514 8.37472237 16.86292967 10 21 C7 20 7 20 5.17578125 16.54296875 C4.54347799 15.09599266 3.92282935 13.64388089 3.3125 12.1875 C2.99216797 11.46240234 2.67183594 10.73730469 2.34179688 9.99023438 C0.74765005 6.27509049 0 4.16411567 0 0 Z " fill="#B90D2E" transform="translate(689,659)"/>
<path d="M0 0 C0.33 0 0.66 0 1 0 C1.21767642 8.96101244 1.04404545 17.2215548 -1 26 C-1.33 26 -1.66 26 -2 26 C-2.23737365 17.08530089 -1.79362465 8.74392018 0 0 Z " fill="#B00E29" transform="translate(796,410)"/>
<path d="M0 0 C0.33 0 0.66 0 1 0 C1.02726927 2.35424675 1.04696719 4.70816962 1.0625 7.0625 C1.07410156 8.37347656 1.08570313 9.68445313 1.09765625 11.03515625 C1.00452335 14.8163519 0.61448726 18.27920707 0 22 C-0.33 22 -0.66 22 -1 22 C-2.65847884 14.6628896 -3.03224258 7.01206097 0 0 Z " fill="#B81031" transform="translate(775,576)"/>
<path d="M0 0 C5.10454793 0.5537478 8.96575557 3.02592796 13.3125 5.5625 C14.05306641 5.98724609 14.79363281 6.41199219 15.55664062 6.84960938 C17.37468118 7.89351653 19.18783748 8.94592192 21 10 C21 10.66 21 11.32 21 12 C16.26525903 10.3003494 12.03832889 7.86340973 7.6875 5.375 C6.94693359 4.95476563 6.20636719 4.53453125 5.44335938 4.1015625 C3.62730989 3.07051505 1.81343467 2.03563954 0 1 C0 0.67 0 0.34 0 0 Z " fill="#C81335" transform="translate(316,721)"/>
<path d="M0 0 C3 1 3 1 4.16796875 3.14453125 C4.50441406 4.02496094 4.84085938 4.90539062 5.1875 5.8125 C5.53167969 6.68519531 5.87585938 7.55789063 6.23046875 8.45703125 C7 11 7 11 7 15 C4.99006295 12.99006295 4.10059081 11.40788768 2.875 8.875 C2.52179687 8.15054687 2.16859375 7.42609375 1.8046875 6.6796875 C1.40636719 5.84824219 1.40636719 5.84824219 1 5 C0.34 5 -0.32 5 -1 5 C-0.67 3.35 -0.34 1.7 0 0 Z " fill="#BE1637" transform="translate(603,467)"/>
<path d="M0 0 C0.66 0 1.32 0 2 0 C3.23839599 6.65637843 3.09139136 13.2471936 3 20 C2.67 20 2.34 20 2 20 C1.86722656 18.94039062 1.73445312 17.88078125 1.59765625 16.7890625 C1.41946125 15.40101721 1.2410654 14.01299769 1.0625 12.625 C0.97548828 11.92632813 0.88847656 11.22765625 0.79882812 10.5078125 C0.33681872 6.63216425 0.33681872 6.63216425 -1 3 C-0.67 2.01 -0.34 1.02 0 0 Z " fill="#CF2243" transform="translate(252,626)"/>
<path d="M0 0 C1.4038527 3.74953062 0.55240617 5.97280905 -0.875 9.625 C-1.24367188 10.58664062 -1.61234375 11.54828125 -1.9921875 12.5390625 C-3 15 -3 15 -4 17 C-4.66 17 -5.32 17 -6 17 C-4.13236819 11.27789404 -2.14710968 5.62338249 0 0 Z " fill="#CD1437" transform="translate(469,499)"/>
<path d="M0 0 C2.47186455 2.96346786 3.66248361 5.54041689 4.6875 9.25 C4.93886719 10.14203125 5.19023438 11.0340625 5.44921875 11.953125 C5.72185547 12.96632813 5.72185547 12.96632813 6 14 C5.34 14 4.68 14 4 14 C3.32471777 12.42032193 2.66010306 10.83608097 2 9.25 C1.62875 8.36828125 1.2575 7.4865625 0.875 6.578125 C0 4 0 4 0 0 Z " fill="#BD1333" transform="translate(545,476)"/>
<path d="M0 0 C0 0.66 0 1.32 0 2 C-0.66 2 -1.32 2 -2 2 C-2 2.66 -2 3.32 -2 4 C-3.45463481 4.38909985 -4.91391207 4.76088029 -6.375 5.125 C-7.18710937 5.33382812 -7.99921875 5.54265625 -8.8359375 5.7578125 C-9.55007813 5.83773437 -10.26421875 5.91765625 -11 6 C-11.66 5.34 -12.32 4.68 -13 4 C-11.2097939 3.32942113 -9.41778511 2.6636531 -7.625 2 C-6.62726563 1.62875 -5.62953125 1.2575 -4.6015625 0.875 C-2 0 -2 0 0 0 Z " fill="#DE153F" transform="translate(445,220)"/>
<path d="M0 0 C0 0.66 0 1.32 0 2 C-2.31 2.66 -4.62 3.32 -7 4 C-7 4.66 -7 5.32 -7 6 C-7.99 6.33 -8.98 6.66 -10 7 C-10.66 6.01 -11.32 5.02 -12 4 C-10.3767313 3.3291288 -8.75132422 2.66342971 -7.125 2 C-6.22007812 1.62875 -5.31515625 1.2575 -4.3828125 0.875 C-2 0 -2 0 0 0 Z " fill="#E41742" transform="translate(247,294)"/>
<path d="M0 0 C-0.33 0.66 -0.66 1.32 -1 2 C-2.32 2 -3.64 2 -5 2 C-5.33 2.66 -5.66 3.32 -6 4 C-6.99 4 -7.98 4 -9 4 C-9.33 3.01 -9.66 2.02 -10 1 C-6.21812119 -0.83691257 -4.05431692 -1.15837626 0 0 Z " fill="#E81343" transform="translate(258,292)"/>
<path d="M0 0 C-1.65 1.65 -3.3 3.3 -5 5 C-5.66 4.01 -6.32 3.02 -7 2 C-7.33 3.32 -7.66 4.64 -8 6 C-8 4.35 -8 2.7 -8 1 C-4.93251126 -0.86240388 -3.40254489 -1.2151946 0 0 Z " fill="#E51B48" transform="translate(220,306)"/>
<path d="M0 0 C0.8353125 0.556875 0.8353125 0.556875 1.6875 1.125 C0.6875 2.125 0.6875 2.125 -2.375 2.1875 C-3.344375 2.166875 -4.31375 2.14625 -5.3125 2.125 C-5.3125 2.785 -5.3125 3.445 -5.3125 4.125 C-6.9625 3.795 -8.6125 3.465 -10.3125 3.125 C-3.58836207 -1.35775862 -3.58836207 -1.35775862 0 0 Z " fill="#E31641" transform="translate(378.3125,245.875)"/>
<path d="M0 0 C4.99911924 0.47610659 7.97832683 2.03162219 12 5 C9 6 9 6 6.73828125 5.00390625 C5.93777344 4.52824219 5.13726562 4.05257812 4.3125 3.5625 C3.50425781 3.08941406 2.69601562 2.61632812 1.86328125 2.12890625 C1.24839844 1.75636719 0.63351562 1.38382813 0 1 C0 0.67 0 0.34 0 0 Z " fill="#C40F33" transform="translate(484,818)"/>
<path d="M0 0 C0 0.66 0 1.32 0 2 C-3.96 3.98 -3.96 3.98 -8 6 C-8 5.34 -8 4.68 -8 4 C-8.66 3.67 -9.32 3.34 -10 3 C-8.70990357 2.49596232 -7.41786211 1.99690074 -6.125 1.5 C-5.04605469 1.08234375 -5.04605469 1.08234375 -3.9453125 0.65625 C-2 0 -2 0 0 0 Z " fill="#E51741" transform="translate(279,282)"/>
<path d="M0 0 C-1 1.5 -1 1.5 -3 3 C-5.71846235 3.27345479 -8.25677199 3.13491285 -11 3 C-4.33333333 -1.44444444 -4.33333333 -1.44444444 0 0 Z " fill="#E3153F" transform="translate(406,236)"/>
<path d="M0 0 C0.33 0 0.66 0 1 0 C1 1.65 1 3.3 1 5 C1.66 5 2.32 5 3 5 C2.67 8.3 2.34 11.6 2 15 C1.67 15 1.34 15 1 15 C0.67 10.05 0.34 5.1 0 0 Z " fill="#D42044" transform="translate(250,608)"/>
<path d="M0 0 C0.95465783 2.16967689 1.14401212 3.56328793 0.3984375 5.82421875 C-0.35870385 7.5684743 -1.17609198 9.28627131 -2 11 C-2.99 10.67 -3.98 10.34 -5 10 C-5 9.34 -5 8.68 -5 8 C-4.54625 7.566875 -4.0925 7.13375 -3.625 6.6875 C-1.65690769 4.64371183 -0.93273129 2.65469676 0 0 Z " fill="#CE193C" transform="translate(462,517)"/>
<path d="M0 0 C-0.99 0 -1.98 0 -3 0 C-3.33 0.99 -3.66 1.98 -4 3 C-6.31 3 -8.62 3 -11 3 C-4.23255814 -1.51162791 -4.23255814 -1.51162791 0 0 Z " fill="#E31D46" transform="translate(309,272)"/>
<path d="M0 0 C-2 2 -2 2 -5.625 2.125 C-6.73875 2.08375 -7.8525 2.0425 -9 2 C-5.945634 -1.054366 -3.9532319 -1.22686507 0 0 Z " fill="#E21942" transform="translate(294,278)"/>
<path d="M0 0 C0.33 1.32 0.66 2.64 1 4 C0.34 3.67 -0.32 3.34 -1 3 C-0.67 2.01 -0.34 1.02 0 0 Z " fill="#D5234A" transform="translate(570,396)"/>
<path d="M0 0 C0 3 0 3 0 3 Z " fill="#CA2248" transform="translate(690,668)"/>
<path d="M0 0 C1 4 1 4 1 4 Z " fill="#E02D54" transform="translate(241,555)"/>
<path d="M0 0 C0.99 0.495 0.99 0.495 2 1 C1.67 1.66 1.34 2.32 1 3 C0.67 2.01 0.34 1.02 0 0 Z " fill="#D9244C" transform="translate(531,309)"/>
<path d="M0 0 C0.66 0 1.32 0 2 0 C1.67 0.66 1.34 1.32 1 2 C0.67 1.34 0.34 0.68 0 0 Z " fill="#C91E46" transform="translate(630,675)"/>
<path d="" fill="#E13055" transform="translate(0,0)"/>
<path d="" fill="#E53256" transform="translate(0,0)"/>
<path d="M0 0 C3 1 3 1 3 1 Z " fill="#DF3655" transform="translate(384,240)"/>
<path d="M0 0 C3 1 3 1 3 1 Z " fill="#DE3557" transform="translate(466,209)"/>
<path d="M0 0 C2 1 2 1 2 1 Z " fill="#BF2E4C" transform="translate(518,831)"/>
<path d="" fill="#DC3658" transform="translate(0,0)"/>
<path d="M0 0 C2 1 2 1 2 1 Z " fill="#E02650" transform="translate(392,675)"/>
<path d="" fill="#D83352" transform="translate(0,0)"/>
<path d="" fill="#DA294E" transform="translate(0,0)"/>
<path d="" fill="#CA2045" transform="translate(0,0)"/>
<path d="" fill="#C81F46" transform="translate(0,0)"/>
<path d="M0 0 C2 1 2 1 2 1 Z " fill="#CC2148" transform="translate(680,648)"/>
<path d="" fill="#CD2349" transform="translate(0,0)"/>
<path d="" fill="#C3294A" transform="translate(0,0)"/>
<path d="" fill="#CC1F46" transform="translate(0,0)"/>
<path d="" fill="#D8264D" transform="translate(0,0)"/>
<path d="" fill="#CD2148" transform="translate(0,0)"/>
<path d="" fill="#CA2348" transform="translate(0,0)"/>
<path d="" fill="#E23055" transform="translate(0,0)"/>
<path d="M0 0 C2 1 2 1 2 1 Z " fill="#E0274E" transform="translate(464,498)"/>
<path d="" fill="#CF2249" transform="translate(0,0)"/>
<path d="" fill="#C72A4E" transform="translate(0,0)"/>
<path d="M0 0 C2 1 2 1 2 1 Z " fill="#CC2349" transform="translate(550,484)"/>
<path d="" fill="#C32A4D" transform="translate(0,0)"/>
<path d="" fill="#C1294A" transform="translate(0,0)"/>
<path d="" fill="#DD294F" transform="translate(0,0)"/>
<path d="M0 0 C2 1 2 1 2 1 Z " fill="#D02246" transform="translate(600,467)"/>
<path d="" fill="#DC2A4F" transform="translate(0,0)"/>
<path d="" fill="#DD2A50" transform="translate(0,0)"/>
<path d="M0 0 C2 1 2 1 2 1 Z " fill="#D1234C" transform="translate(539,456)"/>
<path d="" fill="#D12249" transform="translate(0,0)"/>
<path d="" fill="#D02049" transform="translate(0,0)"/>
<path d="" fill="#E23256" transform="translate(0,0)"/>
<path d="" fill="#E22F55" transform="translate(0,0)"/>
<path d="M0 0 C2 1 2 1 2 1 Z " fill="#D2224A" transform="translate(577,416)"/>
<path d="" fill="#C52C4E" transform="translate(0,0)"/>
<path d="" fill="#E53159" transform="translate(0,0)"/>
<path d="" fill="#E42F55" transform="translate(0,0)"/>
<path d="" fill="#DC2951" transform="translate(0,0)"/>
<path d="" fill="#DA244C" transform="translate(0,0)"/>
<path d="" fill="#D7264E" transform="translate(0,0)"/>
<path d="M0 0 C2 1 2 1 2 1 Z " fill="#DE3D5D" transform="translate(256,288)"/>
<path d="" fill="#E5395D" transform="translate(0,0)"/>
<path d="M0 0 C2 1 2 1 2 1 Z " fill="#C62C4A" transform="translate(701,264)"/>
<path d="M0 0 C2 1 2 1 2 1 Z " fill="#DF3958" transform="translate(320,264)"/>
<path d="M0 0 C2 1 2 1 2 1 Z " fill="#CF2C4E" transform="translate(600,226)"/>
<path d="" fill="#897672" transform="translate(0,0)"/>
<path d="" fill="#CA2E4D" transform="translate(0,0)"/>
<path d="" fill="#C22F4C" transform="translate(0,0)"/>
<path d="" fill="#C12D4D" transform="translate(0,0)"/>
<path d="" fill="#C4274A" transform="translate(0,0)"/>
<path d="" fill="#C52649" transform="translate(0,0)"/>
<path d="" fill="#C42648" transform="translate(0,0)"/>
<path d="" fill="#D2254C" transform="translate(0,0)"/>
<path d="" fill="#C32546" transform="translate(0,0)"/>
<path d="" fill="#C32847" transform="translate(0,0)"/>
<path d="" fill="#C52246" transform="translate(0,0)"/>
<path d="" fill="#D2294D" transform="translate(0,0)"/>
<path d="" fill="#D5294D" transform="translate(0,0)"/>
<path d="" fill="#D62850" transform="translate(0,0)"/>
<path d="" fill="#D42C4F" transform="translate(0,0)"/>
<path d="" fill="#BF2748" transform="translate(0,0)"/>
<path d="" fill="#D52B50" transform="translate(0,0)"/>
<path d="" fill="#D52F52" transform="translate(0,0)"/>
<path d="" fill="#C02D4B" transform="translate(0,0)"/>
<path d="" fill="#DA2C51" transform="translate(0,0)"/>
<path d="" fill="#C02A47" transform="translate(0,0)"/>
<path d="" fill="#DB2F55" transform="translate(0,0)"/>
<path d="" fill="#DC3052" transform="translate(0,0)"/>
<path d="" fill="#BF324E" transform="translate(0,0)"/>
<path d="" fill="#DC375A" transform="translate(0,0)"/>
<path d="" fill="#DC3357" transform="translate(0,0)"/>
<path d="" fill="#CB2348" transform="translate(0,0)"/>
<path d="" fill="#CB2349" transform="translate(0,0)"/>
<path d="" fill="#DF2951" transform="translate(0,0)"/>
<path d="" fill="#C92047" transform="translate(0,0)"/>
<path d="" fill="#C22D4F" transform="translate(0,0)"/>
<path d="" fill="#DD254D" transform="translate(0,0)"/>
<path d="" fill="#C9224A" transform="translate(0,0)"/>
<path d="" fill="#C52948" transform="translate(0,0)"/>
<path d="" fill="#C72349" transform="translate(0,0)"/>
<path d="" fill="#DF264E" transform="translate(0,0)"/>
<path d="" fill="#DE284E" transform="translate(0,0)"/>
<path d="" fill="#C82148" transform="translate(0,0)"/>
<path d="" fill="#C92348" transform="translate(0,0)"/>
<path d="" fill="#DD254E" transform="translate(0,0)"/>
<path d="" fill="#C92348" transform="translate(0,0)"/>
<path d="" fill="#DB274E" transform="translate(0,0)"/>
<path d="" fill="#C82448" transform="translate(0,0)"/>
<path d="" fill="#DF294F" transform="translate(0,0)"/>
<path d="" fill="#E12851" transform="translate(0,0)"/>
<path d="" fill="#DF3356" transform="translate(0,0)"/>
<path d="" fill="#CC2246" transform="translate(0,0)"/>
<path d="" fill="#CE234A" transform="translate(0,0)"/>
<path d="" fill="#DE2F53" transform="translate(0,0)"/>
<path d="" fill="#C12446" transform="translate(0,0)"/>
<path d="" fill="#E03055" transform="translate(0,0)"/>
<path d="" fill="#DF2F56" transform="translate(0,0)"/>
<path d="" fill="#CA2146" transform="translate(0,0)"/>
<path d="" fill="#DF2F55" transform="translate(0,0)"/>
<path d="" fill="#C82448" transform="translate(0,0)"/>
<path d="" fill="#CC2448" transform="translate(0,0)"/>
<path d="" fill="#CD2349" transform="translate(0,0)"/>
<path d="" fill="#C82447" transform="translate(0,0)"/>
<path d="" fill="#C52C4D" transform="translate(0,0)"/>
<path d="" fill="#C82246" transform="translate(0,0)"/>
<path d="" fill="#CC2047" transform="translate(0,0)"/>
<path d="" fill="#C4284D" transform="translate(0,0)"/>
<path d="" fill="#DC2A4F" transform="translate(0,0)"/>
<path d="" fill="#DB2C4F" transform="translate(0,0)"/>
<path d="" fill="#CC2247" transform="translate(0,0)"/>
<path d="" fill="#CB274D" transform="translate(0,0)"/>
<path d="" fill="#C92047" transform="translate(0,0)"/>
<path d="" fill="#D5294B" transform="translate(0,0)"/>
<path d="" fill="#DF3458" transform="translate(0,0)"/>
<path d="" fill="#CC2447" transform="translate(0,0)"/>
<path d="" fill="#DC264D" transform="translate(0,0)"/>
<path d="" fill="#DF3258" transform="translate(0,0)"/>
<path d="" fill="#CC2347" transform="translate(0,0)"/>
<path d="" fill="#CE2149" transform="translate(0,0)"/>
<path d="" fill="#CC2048" transform="translate(0,0)"/>
<path d="" fill="#DC274C" transform="translate(0,0)"/>
<path d="" fill="#CC2048" transform="translate(0,0)"/>
<path d="" fill="#E03055" transform="translate(0,0)"/>
<path d="" fill="#DF3055" transform="translate(0,0)"/>
<path d="" fill="#E23256" transform="translate(0,0)"/>
<path d="" fill="#CD2149" transform="translate(0,0)"/>
<path d="" fill="#CE244C" transform="translate(0,0)"/>
<path d="" fill="#DF2D53" transform="translate(0,0)"/>
<path d="" fill="#C62B4F" transform="translate(0,0)"/>
<path d="" fill="#C52E52" transform="translate(0,0)"/>
<path d="" fill="#C52A4F" transform="translate(0,0)"/>
<path d="" fill="#CD2348" transform="translate(0,0)"/>
<path d="" fill="#C62C4F" transform="translate(0,0)"/>
<path d="" fill="#CE2448" transform="translate(0,0)"/>
<path d="" fill="#CE2149" transform="translate(0,0)"/>
<path d="" fill="#CA2C4C" transform="translate(0,0)"/>
<path d="" fill="#DE2950" transform="translate(0,0)"/>
<path d="" fill="#CF2149" transform="translate(0,0)"/>
<path d="" fill="#DF3257" transform="translate(0,0)"/>
<path d="" fill="#DA2C50" transform="translate(0,0)"/>
<path d="" fill="#DE274E" transform="translate(0,0)"/>
<path d="" fill="#D9294D" transform="translate(0,0)"/>
<path d="" fill="#DE3558" transform="translate(0,0)"/>
<path d="" fill="#CE2348" transform="translate(0,0)"/>
<path d="" fill="#CD2C4E" transform="translate(0,0)"/>
<path d="" fill="#CD2047" transform="translate(0,0)"/>
<path d="" fill="#CE274C" transform="translate(0,0)"/>
<path d="" fill="#E02850" transform="translate(0,0)"/>
<path d="" fill="#C72D4E" transform="translate(0,0)"/>
<path d="" fill="#CD254B" transform="translate(0,0)"/>
<path d="" fill="#D3264B" transform="translate(0,0)"/>
<path d="" fill="#CB2346" transform="translate(0,0)"/>
<path d="" fill="#CD2046" transform="translate(0,0)"/>
<path d="" fill="#CE294E" transform="translate(0,0)"/>
<path d="" fill="#E13156" transform="translate(0,0)"/>
<path d="" fill="#D0234B" transform="translate(0,0)"/>
<path d="" fill="#E23054" transform="translate(0,0)"/>
<path d="" fill="#D0234B" transform="translate(0,0)"/>
<path d="" fill="#D42E50" transform="translate(0,0)"/>
<path d="" fill="#DF294F" transform="translate(0,0)"/>
<path d="" fill="#D22148" transform="translate(0,0)"/>
<path d="" fill="#DC244D" transform="translate(0,0)"/>
<path d="" fill="#C62A4B" transform="translate(0,0)"/>
<path d="" fill="#DE2850" transform="translate(0,0)"/>
<path d="" fill="#C7294C" transform="translate(0,0)"/>
<path d="" fill="#CC234A" transform="translate(0,0)"/>
<path d="" fill="#DD2850" transform="translate(0,0)"/>
<path d="" fill="#DC284F" transform="translate(0,0)"/>
<path d="" fill="#CF2349" transform="translate(0,0)"/>
<path d="" fill="#E1264F" transform="translate(0,0)"/>
<path d="" fill="#CD284B" transform="translate(0,0)"/>
<path d="" fill="#CC2146" transform="translate(0,0)"/>
<path d="" fill="#DD274E" transform="translate(0,0)"/>
<path d="" fill="#CF2349" transform="translate(0,0)"/>
<path d="" fill="#D52A4B" transform="translate(0,0)"/>
<path d="" fill="#DE274E" transform="translate(0,0)"/>
<path d="" fill="#CF234C" transform="translate(0,0)"/>
<path d="" fill="#CF214A" transform="translate(0,0)"/>
<path d="" fill="#E03558" transform="translate(0,0)"/>
<path d="" fill="#DF274F" transform="translate(0,0)"/>
<path d="" fill="#DE274F" transform="translate(0,0)"/>
<path d="" fill="#E23258" transform="translate(0,0)"/>
<path d="" fill="#DB284F" transform="translate(0,0)"/>
<path d="" fill="#CE2047" transform="translate(0,0)"/>
<path d="" fill="#C62D51" transform="translate(0,0)"/>
<path d="" fill="#CF2548" transform="translate(0,0)"/>
<path d="" fill="#E63057" transform="translate(0,0)"/>
<path d="" fill="#C72D4D" transform="translate(0,0)"/>
<path d="" fill="#D02349" transform="translate(0,0)"/>
<path d="" fill="#DD274F" transform="translate(0,0)"/>
<path d="" fill="#CE2248" transform="translate(0,0)"/>
<path d="" fill="#D02349" transform="translate(0,0)"/>
<path d="" fill="#D4224B" transform="translate(0,0)"/>
<path d="" fill="#E43055" transform="translate(0,0)"/>
<path d="" fill="#E12E55" transform="translate(0,0)"/>
<path d="" fill="#D02248" transform="translate(0,0)"/>
<path d="" fill="#D1224B" transform="translate(0,0)"/>
<path d="" fill="#D2254A" transform="translate(0,0)"/>
<path d="" fill="#DD294E" transform="translate(0,0)"/>
<path d="" fill="#DA2A4E" transform="translate(0,0)"/>
<path d="" fill="#C42A4C" transform="translate(0,0)"/>
<path d="" fill="#D42248" transform="translate(0,0)"/>
<path d="" fill="#D92850" transform="translate(0,0)"/>
<path d="" fill="#E23459" transform="translate(0,0)"/>
<path d="" fill="#E0284F" transform="translate(0,0)"/>
<path d="" fill="#D52B4F" transform="translate(0,0)"/>
<path d="" fill="#D92B50" transform="translate(0,0)"/>
<path d="" fill="#E2325A" transform="translate(0,0)"/>
<path d="" fill="#C62D4E" transform="translate(0,0)"/>
<path d="" fill="#DF2B51" transform="translate(0,0)"/>
<path d="" fill="#D12149" transform="translate(0,0)"/>
<path d="" fill="#DD274F" transform="translate(0,0)"/>
<path d="" fill="#D4244B" transform="translate(0,0)"/>
<path d="" fill="#E53058" transform="translate(0,0)"/>
<path d="" fill="#E32E54" transform="translate(0,0)"/>
<path d="" fill="#DA234A" transform="translate(0,0)"/>
<path d="" fill="#DE2750" transform="translate(0,0)"/>
<path d="" fill="#D92451" transform="translate(0,0)"/>
<path d="" fill="#D4294B" transform="translate(0,0)"/>
<path d="" fill="#E43C5F" transform="translate(0,0)"/>
<path d="" fill="#DA264E" transform="translate(0,0)"/>
<path d="" fill="#DD274F" transform="translate(0,0)"/>
<path d="" fill="#E4395E" transform="translate(0,0)"/>
<path d="" fill="#DA254A" transform="translate(0,0)"/>
<path d="" fill="#C13551" transform="translate(0,0)"/>
<path d="" fill="#BE3551" transform="translate(0,0)"/>
<path d="" fill="#C13350" transform="translate(0,0)"/>
<path d="" fill="#C42E4F" transform="translate(0,0)"/>
<path d="" fill="#C12A4B" transform="translate(0,0)"/>
<path d="" fill="#C22E4E" transform="translate(0,0)"/>
<path d="" fill="#C32A4E" transform="translate(0,0)"/>
<path d="" fill="#E33B5D" transform="translate(0,0)"/>
<path d="" fill="#C52A4F" transform="translate(0,0)"/>
<path d="" fill="#C02C4C" transform="translate(0,0)"/>
<path d="" fill="#E53B5E" transform="translate(0,0)"/>
<path d="" fill="#D7274C" transform="translate(0,0)"/>
<path d="" fill="#D9254C" transform="translate(0,0)"/>
<path d="" fill="#C5274B" transform="translate(0,0)"/>
<path d="" fill="#D8274D" transform="translate(0,0)"/>
<path d="" fill="#E63A5C" transform="translate(0,0)"/>
<path d="" fill="#BB2A47" transform="translate(0,0)"/>
<path d="" fill="#DB254D" transform="translate(0,0)"/>
<path d="" fill="#C62C4C" transform="translate(0,0)"/>
<path d="" fill="#D8284E" transform="translate(0,0)"/>
<path d="" fill="#C62D4D" transform="translate(0,0)"/>
<path d="" fill="#D8264A" transform="translate(0,0)"/>
<path d="" fill="#E43D5D" transform="translate(0,0)"/>
<path d="" fill="#C7294B" transform="translate(0,0)"/>
<path d="" fill="#E43B5D" transform="translate(0,0)"/>
<path d="" fill="#E4385A" transform="translate(0,0)"/>
<path d="" fill="#C32A4A" transform="translate(0,0)"/>
<path d="" fill="#E3365A" transform="translate(0,0)"/>
<path d="" fill="#C92B4B" transform="translate(0,0)"/>
<path d="" fill="#E3385B" transform="translate(0,0)"/>
<path d="" fill="#E53758" transform="translate(0,0)"/>
<path d="" fill="#E5395D" transform="translate(0,0)"/>
<path d="" fill="#E33D5D" transform="translate(0,0)"/>
<path d="" fill="#D5274A" transform="translate(0,0)"/>
<path d="" fill="#C92D4E" transform="translate(0,0)"/>
<path d="" fill="#CB2C4B" transform="translate(0,0)"/>
<path d="" fill="#CD2C4F" transform="translate(0,0)"/>
<path d="" fill="#C62C4C" transform="translate(0,0)"/>
<path d="" fill="#CE2C4D" transform="translate(0,0)"/>
<path d="" fill="#E3365A" transform="translate(0,0)"/>
<path d="" fill="#C92C4D" transform="translate(0,0)"/>
<path d="" fill="#E33559" transform="translate(0,0)"/>
<path d="" fill="#CE2C4E" transform="translate(0,0)"/>
<path d="" fill="#CC2B4C" transform="translate(0,0)"/>
<path d="" fill="#E03555" transform="translate(0,0)"/>
<path d="" fill="#D12B4D" transform="translate(0,0)"/>
<path d="" fill="#E03757" transform="translate(0,0)"/>
<path d="" fill="#E2375B" transform="translate(0,0)"/>
<path d="" fill="#CC2F4F" transform="translate(0,0)"/>
<path d="" fill="#DB3857" transform="translate(0,0)"/>
<path d="" fill="#DF3255" transform="translate(0,0)"/>
<path d="" fill="#D22F52" transform="translate(0,0)"/>
<path d="" fill="#DE385A" transform="translate(0,0)"/>
</svg>
